<mxfile host="app.diagrams.net" agent="Mozilla/5.0 (Windows NT 10.0; Win64; x64) AppleWebKit/537.36 (KHTML, like Gecko) Chrome/130.0.0.0 Safari/537.36" version="24.7.16" pages="2">
  <diagram name="PÃ¡gina-1" id="H8rZ1oG9GJj_A1Dtxa5K">
    <mxGraphModel dx="5239" dy="1865" grid="1" gridSize="10" guides="1" tooltips="1" connect="1" arrows="1" fold="1" page="1" pageScale="1" pageWidth="827" pageHeight="1169" math="0" shadow="0">
      <root>
        <mxCell id="0" />
        <mxCell id="1" parent="0" />
        <mxCell id="GklHYiAxv3OfYElgcjRT-1" value="" style="shape=image;verticalLabelPosition=bottom;labelBackgroundColor=default;verticalAlign=top;aspect=fixed;imageAspect=0;image=data:image/png,iVBORw0KGgoAAAANSUhEUgAAAa8AAAGACAYAAAAake3iAAAAAXNSR0IArs4c6QAAAARnQU1BAACxjwv8YQUAAAAJcEhZcwAADsMAAA7DAcdvqGQAAF3mSURBVHhe7b0LfBbVnf//TbwA2iqul1IRUExQY6xVK6tJxaKChlgLrgLbugvrzw1eVhL1hS190fXvymo1P/0l6Ipk+3LBtq6GrqRdSQQq6tqkLije0qgkonLxLgIq3sn/fM+cmefMPHM589zyPHk+bz3MzJnbmTPzzGe+33NyviVHHXVUPyn6+53ZlMnEMQAAAAxuSkpK1FxqlKppSqLD+3gTAAAAEEW6+iHFK85OqZ4IAAAACCOOvpQceeSRkVvFESqIGgAAgChM3YZB2zluQz+CFNDO90sAAABAFH76wclLUH6g5aVv7LcjE5QPAAAAxMFrYflZXHqer3j5CZefUEG8AAAAZAqXOKn5IFELFS+e7rvvvnIeAAAAyBWff/55qIAliZfX0mLx6u3tlfMAAABAtikvL5fixUih8ogXE9lhAwAAAMg1uv74aZFLvCBWAAAA8okgXfK1vCBiAAAABhLWIV2LvLrkiBcECwAAQD6j65QULz3juuuuo1WrVtHcuXPpxhtvpLPOOkutAQAAAHKPn3GV5Db81re+Rbt376YXXniB9uzZo3LN6ezcbJwAAACAMLzCZS+XTJs2rX/Dhg1y4aSTTqJ58+bRV199Rbfddhs9//zzNHToUKOu8j//+W/o7//+B2KfPnr77e0qN5hjjx1NY8aMoPvue5xuvvkSlQsAAKDY4a7yn376qevvvPTu8jxfeuihh6pFokMOOYT2228/2rJli7S84sDC9eijL9L7739Ke+89LDL19b1Hv//9M3I/AAAAQIctLN3q8s6Xfve731WLRCeeeCLts88+1NPTI5f/+Z//2bjN69hjj6Bt2z6gv/u7Gho58rDIxNt94xv7yv0AAKAYsC2IqJRvcJmeeeYZtZQMr8tkuSdPnkwtLS10xhlnyOV/+Zd/oYcffpja29tln4yOjg4qraiokCsZbu/68ssvhQhtUznxuWxxHd3/ypKkVHtglSvt2fYLtYc/HXNKaE6HWpB00JySamruU4tMxxwq4Y36mqnau84In2NmDT6X+wGtzs2JAQB5hG1RBKV85Omnn6bTq7/vK2Ccx+t4m0yxevVqqquroyeffJImTJhAw4cPp5///Oc0ZcoUOvfcc2nr1q1U+o1vfEO2dXEaNWoUvfvuu7R27Vp5ANOK5BfxDTfcIKy2Xjpu97d908LHf+YkE2qm1lFLm6ZefRupm7qodWXihd+3sZuqKsqJyuqps7+T6svUirylipp6Ew9pZ0oFzqXgAgAA0SmnnEJ/7vxTkoDZwsXreJts8D//8z909dVXu5qy/vSnP1HpgQceSOw6tNu7bJdhXLhb/ZdfltMJJx9Pp004hWrPP5/OPvtsGn/CsXTNzD1OMqa8gqq6N5L9ju5b2UqVTU1EPXbnkT4SWTS9Nu8VCwAACh6vgOVCuHRYwNh1yC7Dn/zkJ1TKbkIWLru964MPPlCbxmd81f70zaEH0FEjx1HFcRXS3CurPJnWvZgsMKUjb1JzAZTV0nRqJcvQsoSqonYcVba0CduD6aWerkoaJw+tWyNqvnmOv3tOuhjt/I0qU6Gt42S7Ld0uTI/lw/vIlX3UXJ28rxGu885R12ed1z6edI/Kc0+hFmGBNpTrebolllwXc+ZUJ47re640yg4AKBp0AcuVcE2fLpSgtVW2f91+++1UU1NDv/nNb6j0k08+IW734rRjxw7ZPT4V1j68gj785A369KNP6Z2336btQgTfeecdeuudt+jtz0up7fHD6MMh18ltt455h3btkrMhlNG4yi5laAmhElJWW1ZDU+u6aSO/mDvaqKVuKtXw6iTEy71nquWea6+jroZG9ZIWL/PyBqpst9x2y4Q4tsh8xr2uv7eJuqdYIuByYYrzdleR475ki5DYddnRSA2V7Y5LcIlvwZTouESCz9tK0213YjvRQqVENUtUnsisa1koylJDS3jedj/6n8RDF3VXLBPHWCLqKuBcRmUHIL+wf0dRCRQurEsTJ06kt956S4qY3aTFlHK3+IMOOkgmnk9VvHbs9xrtqvxfeu6zt2jX7i/oLz099PLLG+nVl/voi12f0uclQ9SWRPvs+036+mu1EIIjGixUleOEnElvohQOp73LF/Fyn6fewDVTxcteCR63m1U1kb2qrH6BWKeQbWp1NNV+cZfV04I6JZ6aC7OjrZumL5jOhRDLmuuSt2mZEtEJw93mJUVCteU5ojZF2FW2a5Q7pMgfIFtbqVKVcK0Gncuo7ADkF/bvKCqBzKG7CnUXYq45/vjjqfTFF1+UbV3c9vW2sJhS5esPRtPwv9TQofsMp88//4z+7c5F0vIauu9Q+nD3R/Txp5/Qfz6zTG577W+voM8++0LOh6JEo0MIVZ1SlbJaIRw9K3Pb3uW4MDuorVtYgDW83EO9fStFLluEvA13GmFrbpYUhniutzpq139wrGrs3ptCKr+XmoS1lxl8zpVW2QEAxYC3jcvbBpZJDj/8cDnlPhg84hP/PTJbYMzf/d3fUWVlJZVyt3geUYP/mjnuHybrfPXFlzR09xD69ud70f5DhtKsS/8PjR41msq/PYrO+u7RdNDB+6stxReT+G9XtN9QiUYDTWmwPHNWHrd7NVCD094VA963q4Ea1cu5r3lhwqLhdWLJ6eAoxGNhi22JlRFrZuushdQ9vVYs8XI3tTX2sIJKi9CmrL6TeoXSdEtTzwB1XttV6NDbQ11VFSQvm0WyS+b6UE4VVbZ7VcBWqppNIuhcithlBwAUBUGdM7IlYCxOd999N33/+9+ne++9VwrYNddcQytXrpR/A/bf//3fVMp/8MV952tra+mPf/yj2tXipptucvkYw/j8y69o6AFD6N3dO2jnzg9pzJgxdNTYMTT6u8fS8JFHUH/JMLWlQFjyt62drxbCYJEQJkeVsm4k3O4lJoHtXWHU0JL2OmqZYrnNZglpdNyGvE62cymXmmwb4nYiC2nxCQGxrT1e7m7pTlh/jouvhMobKmmBcTd467zUUO7sLzti1MyjJiHc5bw8q4cqHcuLr1/vsFFG9QsS11TSxrZVEAHnSrnsAIC4OL+9gJSPfO9730sSLhtbwHibTMF/53XllVfKLvF/+ctf6LLLLqMLLrhA6hRbXvfccw+VCJFxOYVtd5I9bzK2IVf4F198Qffd94DYnuiww75F3/rWCBo79ijae+996T9a/0Db99pCJfvuRZ93b6eeYW+KnYh+8I0L6aqr4ksQAACAwQuPbcjWli7o3qlvMMpU4G72M2ZMo492f0Hbt39M7777HnU++yT97vfL6MN9tknhcoF2VAAAACmSMcuLx0E05dVXX5XT00//CSwvAAAALkwsr4yIFwAAAJApcuo2BAAAAHIFxAsAAEDBAfECAABQcEC8AAAAFBwQLwAAAAUHxAsAAEDBAfECAABQcBj9ndfTTz8tlwEAAIBsw+Mk4u+8AAAADDogXgAAAAoOiBcAAICCA+IFAACg4IB4AQAAKDggXgAAAAoOiBcAAICCA+IFAACg4IB4AQAAKDggXgAAAAoOiBcAAICCA2MbAgAAiEXXX16n1seeF9M3aOt7O2XeEYceSFXHj6HpE08U0yNlXqqYjG0I8QIAAGDEzk8+o4a7fk+PbHidvjp4HH19wBG0Z8hwsaafSj/dQXt9tJX23r6Rzjv5KGr6px/RgfsPtXaMSZR43Xrrrf5uw/r6elq0aJFaAgAAUOywcF10w33U/spu+mzcD+nLwyod4eL/ef7LQ46nz44+n9pf+kRuy/tkiyTxamlpocmTJ6slwKy59UEaPqeHNqnlVNn0wCMZOU5G2dpDk88W1ydSQ5fKA/mP333T8gDINGxxvbB9H/p89BnUv9c+UrD+v/MOp8f+6Vh67OpjacVlZTR82F7UX7o3fT6yil54f2+5T7ZwxOv222+nNWvW0JgxY1RO6siXvfoRJac/0xq1Xa4IFB/1Y09+ae+kxXPEPrduVcuDla3UMOtFqrhpBu14dAY1ValskOf43Td3HgCZhNu42FX4xci/FkuWpcX/3CDEi2HRmvqdg4SAlat1RF+M+B498sxrct9s4IjXQQcdRG+88Qade+65tHnzZpWbGpN+av2AOC1nI25ytbO849HTaZK1Wc6YdMZoor6d9Kpattn0p820TkyXPukVqY/olT6i2WccIZfk9SypoLFyaRCxdRf10IF0jKieTJGX1uVgw+++ZeFeAmDDnTO4jcu2uGwBm/arXpq46CU66Zfd9NzW3fSD8gPk9sR9J0r2oa8OKpf7ZgNHvC699FK67LLL1NIgo2oUzabNtNJjYb36xk4aX3Yg0eotbmuwawstpdFUC0sEAABkr0LunKELF6e2Fz6UU7a8jjx4iBQwFi57u6/3/7bcNx2mT59Ora2t9Ic//IFWrlxJv/71r2nIkCH+HTayj+WW87rr5Fe75qpzvuK7/uxyObIbcPIDO631tjsy9Gv/m3RMmdfC2korVx9I035RKYRtJ/VpqzZt3kkkRO1otSzdjlq5TM/vcp+K9V7Lj3Edg5PnPF7XpczznMu1ndbuYZ/Xr17keWe9KCzPnTR/Fm+bcOe6y/QILdaL4D2+s591T0/+d1F3fS/SybxOnju9e+2sc84XUZ6A67VxH0skn/qN92xZRB037Pq8hB1LrvPct8U+eQBkEu4Or3fOsMWJ/2fhemzucXJ6ze9ed63bs+9wpyt9KrBB9Td/8zf0xBNP0AUXXEC1tbW0detWqqioGCjxigG/CJ8cleRyXPfvj9DldLrKr6bZvJ3nhZHgQDp3orCwNu1KvITYuiobTecewcK2k1b8ya7gnbTqMWGRTRwZ6iaMOj+/BC9ePZqW2+7SXxA18otdg7c5+d8PTGzz6Hl0y6ZO52Ul3Z0uq5AFV0z6NtMq51RWnuXidLd7cFo+0drKy9iZ59GOZSfQeFE3tyzjba26lWV6bDRtsMt004HihagJiainaXJ7dfzJm+liWd4D6YolM2jDP4p6LjvB2j+uq9XnXoeXx/x6maj6ton3bJkfN+hZ1ok6lt99u8InD4DMYwmSLk78z39cMlZaXRObeujxjbu0dTxrz8Tn2GOPpRNPPJG6u7vp3/7t31Qu0fz582UTV/6LFwkB+KnV9uRicjWtnilelJIjaC6/NHVx8jD2+6NpvPbSX/PkZpF5gHi5WsK27rFt1r5bt9GKPmGRfd8+dgCh51eCcpP2gjqigu7hbWyExdDo3YYF4BfiJbS627IuvO5OKbgn0C2TNbGVbR3KxenT7jFpZgwBkWUSL8BfaPtUVdAtZYkyjJ0pXpba7UgW2HTw3Ouo8sS5XpP6tonzbMU5btCzbBPrWADkDv4DZP47Lluw9ClbXG3Pb/cVrtLPd8p9U4HFa9iwYfTKK6+onATbt28vAPHS3Hc648d8U81ZjB0tKsinU4bDESNpmmNh6daKLWxq3807aZ14YZSFvGOY0PObtJnJ8/hsc8QBVCGsv1dkn5kjqHZywt3J7ky2CK8QgmGLrex0MnmU9bITAjlPCJt0HRm4upKQZbJdT3Z6hOb3EfWwK1Xhcmv9Ir3OPS689zqqPHGuVx4rqr4tYj1bMY4b9Cw7xDkWADmER87gP0BOiFNCpNji+of7+NeRyLMtrr0+eVPumwrciXCfffZRS8kUgOWVKTQLS7dWGPlysL7mpUVmi0EeIC0b+dXP7kyyLELxMrXE1nJx2iLM2D09l4990Wp3CnF3+aO5OrVkWSJbqUEc0+3G08yerBBWnkxcLwAgCh7yiUfOKPn6S7HkFqn+fzuN+u8+LUm4Sr7+gvbe2Sf3TYUPP/yQvvySz+fPgIqX/jXPcO+/bGJ/Qa/SrRWJbeH82WWRpQyLixAWvRMI47o+uU1yD8gkVxi7Dtnd2bWNVogX+blcNGlF8r7cpd+/e7R8qXM7SBx3U1CZbJRFuVxry5KdWwxI6V5HlUcj8npN6zsumTxutsoIQJrwWIU85NO+b65zi5Q9b6OEi6f7vvcMnXfKUSmPc/juu+/K6THHHCOnNtwONmrUqIESL2UF/XtPoq2k6890sRCOrCLbkHbSCu6Q4XENWW03m6PdfSYoF+X8mzRXlvf6pMtLCOYv9F5nO2nxTS8KYa3U2pVUh5JlwiJ0OpFY9dezrFt1OpGZ4iXXQw0PaKIg3VAxCCrTreo6vC9Xcb7LPZ1Qkl1sadzrqPLEuV7j+o5JJo+brTICkAGa/ulH9J1DvqIh27qkVWUJVz+VXPFnmXSLa8g7T9F3Dt0j90mVrq4u2rRpE1VWVtJVV12lcolmzpxJhxxyyMBZXtzwzw3vF9ttGU+OsnqqZRW2sMQLzq9DhhQ2QVS7hBHc8+48uoWUKyvg+tha2PCPOxN1cPYjtGLiebTD1aivXv59ymWo4HY6Fglvr8ief9fbo3bSLcvOi/XS4zLJHoR6mcaoc4iXK3c6WfoLte4monu8bkPVoULur9qh0rnXoeURxLles/qOTyaPm60yApAuPMju7278e5py3P40dFM77bO9h0o/32GtFMLFnTP22f4SDd28iqZUfFNum+rAvDY333yz7G14zjnnOH/nxTz77LMYVR4AAEA8EBIFAAAA8GAiXkXU2xAAAMBgAeIFAACg4IB4AQAAKDggXgAAAAoOiBcAAICCA+IFAACg4IB4AQAAKDggXgAAAAoOiBcAAICCA+IFAACg4IB4AQAAKDggXgAAAAoOiBcAAICCA+IFAACg4IB4AQAAKDiyIl5rGobT8OHJafJiJyh+YbCmwSr75MWJcP5AsIYahk+mjN/OTYtpcsaPm8mymhwrS3XjAb+xPMBb9rSupZB+U/lBVsRrUtMO2rGD03KaTePplg3W8uor9ID1QeTmxx+NKMfFS2n2clH21Ve4Qu2bkS/XkW+E1MvYK2j1jtVkPSaovzDwG2MG8jq8ZU/3WrLEIP5NwW0Yyng65mg1CwDIAoX8G/OWHe+LXJJb8ZImbMLF0bBG5Tvwl8HFtJTW0fyTxTZyA+/Xgr5szTc0TBbHaxBLat1iZb6LFORGcbldkgriLodzDFf5+XwWycdy7x//OgQB53IRWJ/q2Ab1kGATLZ7sc6zY5dC38R7Tr1507Drx2y6gfC5Ctnk1UUZXXRiXXWU7cBnFOv+CGJ7PPq51Lmc7dj+l6kYLfCZs/OrWrndrC/eyNY/fmJWsy/CWfbFn2b8+Ehg8y8b1IHOTr83BrgN3ma19TX5T+UsOxUtU3snzqYLNanZ3bLiFei7WHzRmEjXpbpCmSSo/jHXUc8w94phNYm9ref4rtdY5ls+mdfMXeW6mhcvtsrQxtByWK4bLv4KmKfeMWE2NaqfkY6V7HcHnShBVn2b14LBmEc2vWG5tL5JVZNNy+G3DP4yTacW0DdoxTevFZzvf8un4nU+t4rpoJLqH8111EafscgcFr7+YiOve9xq084n7QvMvV/cl6J6NpStWL6cKWS6xDR86VTcafmMhZOo35i37FT7XEkTUs8XEqQeZLfDeIy+p/Kbym9yJ16Y+6hFVV2tX0NgraN7sdfTKq2o5ZcbTtHP1h0XcnLnqJJNqxRl7qM/7TDJ246r8GjFAll/8aPmrhfe7WHzD2IWPeyxftOsIO5dNZH0a1oPN0cfQ+KUXu78ajcvhs82mVbRi3WyaZ9QGY4Bf+XRCzyfq4h4lBnpdpFj2FZdbL5/gH7t2Pv2+hN4z8XIRL6mLxTNEy4NeQBFEPhOpgt+YJBP1afK7SKkevPfIgKjfVJ5TnG1ebJLLD2f+4thAt4xX+ZHMVvuoxG+vlI8Vhc+5son4Ya4W57mHLpc/joQLwaQcOShrYPnSJW7Z14k0PvlFF8gm6utRs8UEfmNpkoN6yNpvKjfkTrzGllGF+FZYaVeQuBGNS7WvmkCOpmPGa187a1am8eWlePUVWjf+GHFkgfwSkrnhqPInuRaMjxXjOoLOpZNyfYYz9orVtEH8Knr4UzpGOZK2GXsuTRsfsW8KuMqnk8r5Uiq7+MK9ZzUtp7Av1nW0YpVap7605X0JvWdrLHch+4gu1tstRL6rHSeElJ8J/MZ8Sbk+QzB5TtOuh3gE/qbynBxaXpOoSfqMlSksfbp+7pFJVCtMc2kyy0+BsXTFvNm01N5vJX+TpMmkuXQLzaeT+XiXv0IVRl8wVvlFwaxycOLyBR4rnesIOJcL0/r0wG4Hv84AjjtiOJ08v0K5NczLkbyN3Y6TyLd29dZLEJ7tfMunE3S+MOKWPcGkpg00bYVY79uxYjxVvGJ9zQ6XbSb2fQm6Z1YbWs8tc8X8JJp7Sw9dnFKHDdNnAr+xwHO5MK1PH4J+Z0bPadx6MCXubyq/KRkzZky/mpf09/fLZM8PHTqUnn76abkMCh/urbSytvAaZwEoJPA7S4/vfe97tHv3biopKZGJ8U4dy2v27NnU0dFBq1atopUrV9J//ud/0hlnnKHWgsHBGlqZAdciACAM/M5ygbS8/uEf/oEuuugiam1tpaVLl9J3vvMduvrqq2nvvfemG2+8kf7whz+ozQEAAIDsYmx5ffzxx/Qf//EftGzZMpn5/PPP06OPPirF66CDDpJ5AAAAQL4gxWv58uX0u9/9TmbYvPXWW/TVV1/JNi8AAAAgn8hhb0MAAAAgMwSK1/HHHy/dhvwHcpkjxt+sRGJyrEyezww59lhy31c3dhdV7kq7aTElQhbo5U2l7EH75L4e8o98qYMCuxf6s6qy/MnAdRmfawBw/U7zneL4vfuK1yWXXEI/+MEP6OWXX6ZXXzUdSQDIP2LsmU2ze7zjuOmIB+tiLXSC/Ct3O2QByByZ+AEPlpdAqtfheVZVrkWm6ybsXCZk+V7F+p1muSxAkiRev/zlL+lv//ZvZZvXTTfdpHKBCZtWrSCaNpfmTqPECAu+IHQCKBRy+azidwHMcYnXr371KzrppJNo9erVNHfuXJWbKjxqgPXX25xcnrRBGZ5iE0ntOncsjT1XqpfPPlxOHlDT+it36xyGX2lBdaPlT17cpzIDyEo9qPKvSRyD99+0mMMzRJ3LLNSDf/iNsGfCXc+u5yKgDpLPH3IMG996Y8LKbWOV33VY3zpOrt/wcstcuY8VIoPXpXId7ut3lz+kbmL/tpmAcxk/K37lseogUQR92ZqPFx5F3z/usxenLGpd0LMTVE4tP/Q94No/7jObX0jxYsHiv/EaOXIk/fa3v6Xm5ma5MnX45hZZeAoea4ymkRzYmccvE0vJxtekGKETdILqxn0N94hzBo9Jl816cN9THp7nclEaq6wm91jUTEioB9/wG6HhHNz1nHgugp49v/MHHcMmqN7U6qByO6ihjJyB88QRVy6l2fP86jjo3oXXmxUiQ62LfR1hz2rc+g2+7xZ+54rzrETdKz/ihkfRSOnZC8M05ExQOd33MPg94N4u/jObX0jxOuecc6TSPvDAA3TffffJFWmhBiP1HytL3NRBGJ7Cchmeq148Y4mNr/mLMnTrA+tG5I+/hezoFGOvmCeuKIhs1oP3nmrhGUzuMWM31suvVh1xbL/wGymFcwh49pjA8wcQWm9MQLl1OH/pSufFtLIncS/dBNw7JqTejEJkRF5HHALqN+y+B5HSsxKHmOFRdDIeSsR7rwKenaBycr7Je0Dun+Yzm0dI8aqoqKCtW7c6f6Q8cBRqeIo1tGj+OvGlkhhI82SxLD6rM/jlksnwDQMZpiNDoR7EDy9j4RxSOX9GsAbh5a/nTYsbqcf5+AlDu3cDVu5USOX5zUFYEIcY5cvksxebTL4HChunzevII4+kNWvWOGMbtrW10YMPPkhnnXWW2iIGxRaegkMviC+fDfpDJX9Y2vHTIbBuRP66+WQbePwCDP4SzWQ9pEjQdaQR6iEj4RzSCN+RbrgMq310ES1S7aX+BNy7TITIyNB1hBJ038NI+1nJcHgUH8yfvQyFnAkqJ+ebvAfU/vHvdcB7b4CR4sVjG7JITZo0ic4991yqra2lqVOn0owZM2jt2rVyw3iYDPvvZVJAiILoYw10eApuqxif9NXMrsPxrjaN1AmqG3brJUJAXE7TxHdZEAMVpkMn4DpSCfXguI6CwjmYhl4RGIfc0Amqt5iw66ZiKS2tmBfSDTvg3hnXWzauI0b9qnMk3fdQ4j4r3vKoNkX7utIOj6IR+9mLU5Ywgsop8o3eA9b+aT+zeQJCogAwwHDvueDwGfzV20jHbMDfAoLiIVZIFADAAMCum8COGgCAICBeAAwI7JZVrhu7hx4AwBi4DQEAAOQVcBsCAAAYlEC8AAAAFBwQLwAAAAUHxAsAAEDBAfECAABQcEC8AAAAFBwQLwAAAAUHxAsAAEDBAfECAABQcGR0hA0OowIAAAD4wdFKTDAZYSPj4jVr1iy1BAAAYLCwc+dONZcarA+ZFK+icBt+9MIFtOv5H9Ku535IOzk9+0PaseF8Kz1zPn34dK1M29fX0o4XrlR7AQAAyFcKxvJiJY6LXW4WrgNGzhBzfF17+MKsKS/3u6cfvPHfdPD4djEPAADABpZXGrAYmSYXUoujhctaLyYAAADymqJwG1p6ZCJcewy0q4PmqK8BO83pUKvykuTyVjf3qXWCvmaqLqkmJ6tjjrVddTPJLO9yrvCWyxe+trBt+qi5Wrv2XF9DJjGqj9TomCPqJukh9j43+rl53Rzxrw/28yJTwDYAZIBBJV5btmyhmpoaWrVqlcpRsCIZCJeVx8tRVFFTr+Ve7W+vo5YpufqRRr2sg9DK299OlQ3liZdVWT119ndSfRkviONPaaG6drFdZz2VJS1nE8+1ucqVAvJlX049C+zrFmkZ0cpCfZumWx9BiHpa2F1Hdd0LfZ6rxHPT20TUMCtC/LnOpxC12/XdW0Eb86K+U/3dgHxm0IgXC1ddXR0dffTRNGHCBJVrwT8kI+ES83LTONRMpTrqpo0F88OooSXiTVTV0iZ+0n5UUUW5mpV4lwsBYXHNaqBKIbpLalQWIwSgXl8G1LeylWj6PJo3nah1ZfBDXFa/gOq6WilkE6LeHuqqqiDncUF9Fw0NDQ1qLncMCvHShauxsZGGDRum1uhEC1d85RJ0tFFL1XSqtb+I5Re/122ivvw6EuvY8Olrrlbb+bny7GPYbkk+xhRqoS5qKBf5tuXke74IymppelULtTnH5a9S9/Grm5s9y6p8Idc3Zw5fj8oLq4fmhGvJOq7ftdnlkjtari37ePa1B9G3klq76mhq2IvTt44ZdV6je5W8rXdddJ24XZtWOfzy3PURWf6kOvajj6R2iYe3rFaqV7hlFQV/yHU10Kyk83nK7lpW8yF16L9OEFEHVt3zOp/fDcgYtnDlWsAKSrzYHchuQRYrGyPhYk0yEi57GoX6IfAPo22q5lITP5ryVpruuBSJFjo/NrHPQqJlMp9djSU0i5ap7eqoq6FR7M3wMSyrwXK9NFH3FP6hC4tJHLDOduVIkyLsfHFxH7+zvt6zzFcYfn3dFXw9S8SRIuqhR9SZ67r9rs1NzRJ1LN6uxc/F5UG3AJIIqmO12vheMdq2lm/NdZzIOulopIbKditPJOu2+uS5MCh/Uh37wCJP6sOLP2jEUpBl1de80P2R5gvfx16a3lruEZMowuvQf110HVh1z+vDny2QOl7ByqWAFZR4sTuQRYrFikXLzOJiPWJBEilCuPr3fCln93z5kVgOQ/0QxA/G5X7r20jd/GOzhW2K+N7r6VUrxT7LlMhJV2OV/OKV6K5HeQzNaiirpwV1XeQcRif0fFGk4A6MuD7neqLqYZ66uDguV6cjAH9FG9DVQ4E1EVnHhvdKom3rc5zIOimvEM/QFLdF4ZenY1J+gzq2XIa16sOrjNj4amjUFSdR3vKGSmo3avcso/pOW0xMBSy8Dn3XGdSBU/cgK+hC1dQkPiwUuRKwghIvFicWKVvATITLIcriEss7336e9tp7KO18+UaxbID4wSxr6vZYO3WJBmtOWf/SS+F80q1WSeNS+m2bni+D9cDuIacjQC81Van8IFxu0VzSRxu71awvPnUinqFOMb9M2HYsEvJl75eXcTqosaFLWGWWlWQJVBeRqy1UCIdtKUrrMQbyt1ElDhe38GF1GFW/YCCwhUsXsFxQcG1euoCZCpf47fG/IgULF+d/8dmHNPzbJ9OXu8x/IdyQXWm7MsrGUaWwC1J33QnUMZzfvHhxL2wJaL9J6Xy2uyXmy4gxPV8m6kFH7wgghVfmhiC+/hdY7j7Xi1/UZTMvx6njSLoSHR3C2toi6qSsvpN6xcu+WzOR/PIkmSi/bKttol4pTHbiD4M0RL9D1K9TVG5P66Iqad6XU0WVZhXxudWsRVgdBqzL6D0EqeIVrFwKWEF22GCxuuuuu2SKtLgYW6RChIun/APea+8hcmpODc0T98vqRmz15CPtazZ+A7F1DHa5yP1lO4ktNDU0tU65cuRxTc+nuatKFlKF+JpOzRAyPV8q9eC9No2aedREDVTOx5nVQ5VRlhdTs8RxXTllmEVUK687rI7jUkWVPZaFVBL6URBQJ9rfRbFrbgG3LfrluUi//B1tLVTluAxt2HWYirWkqBlHPc5zVi7b7ay20sTHhFzXxjaoTlgdBq2LUwchzxZImSChypWAFdTwUKblYPTtP1g3hQ4ezY+1Eix5fW7h4uk7mx6nb439gTU9w/O3YgAkIaxY+TGQhb+/KhrC6hD1m09geKg04AsyTS6kFocLF0/lZs4UAABAvlIw4sVWVNxkY4lRuHBZ68XEmQIAAMhXiiKe1/tP1Vi6xcjrs2fFjPW/mvaTMFKJ9tqPRlSvkNsAAADIP7chglECAACIBG1eAAAAQJoUhXghkjIAAAwuEEnZ03EDkZQBACAZuA3TgMXINLmQWhwtXOhpCAAAhUFRuA0tPTIRLpNIyoJsRIvt4/AO+qjYGcYuc1rRhPmPRsUxkkYp4Hy77GobLTkDzGaj3gAARUlxdNhgRTIQLiuPl0NgkclGtFg5GGu2RhIQgjIlUxGRq6iqe0rEYLH6gK4qnEq26g0AUJTkVLzW/PFRWrRoUWDi9dmAX5ZGwiXm5aZhFGy02MxFRJ6+oIm6F8a04BBlFwCQQXIqXi/1/IWuuuqqwMTrs0e0cEUrl4DjI/lGixVI15/XLWa51KyortVUXe0Z6ZxdadKVp7veGL9oupztd46AbSV83KiIyPo+enkDXHvl9bSgMqAOggirNwAAiMmAug1PmHy9mssyrElGwmVPw6gJiBYrXvp+kXIldlTXTurk0bW1Ubt5dO+6BV5XHotRObVO77WOJZI1CnzAOUIj73J5/SIim0ShDR6pvGZJeyIUTBL6KPZ2HQXVGwAAxCfn4rVHvCzt5LecDfgFLUUqQrjMIyn7RIuNiB7sisTrBPzroLbuJrKD3jqouEVJoTDiROMNIyNRaIUYtVd6Iu/auNu8EmKaSpRdAABIZkAsr2mX/06msUed6sxnnSiLSyynFklZj39kEj2Y439Z0Zf7mhdSd1JMpSgMo/HmAo6zFdl5w4ekegMAgHiULlu2TM0mWLx4Mf3qV7+i448/XuVkjo927aT7bpsk06bX1jvznJ8txHud/xUpWLg43yiSclC02BjRg8tqpxO1NlJjq1+gQYEKY590rBSi8fqSsSi0wpJaxlYUt6lFEBhlFwAA3Jxyyil077330m9/+1t68MEH6f7776eJEyeqtUTnnHNO7i2v3bs/dZLfclawRSpEuHjKlkxkJOXAaLFWZFcyiR7M4iRe9y2VUwPalNi9xm1KiWNZhwo4R2TkXS/WcTISSVhZUZEE1hsAALg58MADpQH1k5/8hGbMmEHvvfceXX311XTJJZeoLYhKHn/88X59SCd+cd999920zz770B133EGvvvpq8ogVAUQND8Xd4S+88EK1lMxDDz1Ec+fOVUtueLgQ03Iw+vaIpAwAAOmRy+GhLrjgAurr63M+yk844QS67rrr6LPPPqMrr7zSzPI6/PDD1Vz6HFdxvBSooMTrw2BBMk0upCEVLlw8lZs5UwAAAAPBm2++qeYsXnzxRdq2bRsdeuihdPbZZ8u8SMuLYZ+jCdkcmDcd3v/fKXTImMl8cWLJX7g4/+1Xn6QRR59hTSfA8gIAAJuBHpj3X//1X+nYY4+le+65R+ZFWl6ffprFtqhcIUTrvddW0XuvrxbTNfTupj/Su6+tpXc2cXqc3t70hBQstrl4ypGUAQAA5C+l+++/P5100klqkaRJxqaZDfsYC51DTuugQ09XqeoROqzaSt/6/irZtjWCk7C0vj1htZyOqF6h9gQAAJBrvM1V3OY1cuRI2XHj0UetYQRLWaj0Hhzcs2PYsGFqiWj79u1qDgAAAMg+7B6sqkr0Yr7sssuIDa3ly5erHCFeGzZsoJNPPpnWrl1La9asoZdeeok2b96sVg8OEEkZAAAKB/b4sWDZf+fFwrVw4UKpUzaIpOzpuIFIygAAkAwiKacBi5FpciG1OFq4rPViAgAAIK8pKPFKFUuPTIQrjUjKMsRIpiMhW+FJTI/ZMccukzslBux1h05JRFXm82j5rnPyOj28S9B2WSYr9eumr7naGrEkB+fyJ979jk8Gjz9gdRQN/w6MB6kGBUtRiJdUJAPhsvJ4OQT+0fpFBJaD42YrErIZNUtUmbQQKLzsRDIuKaeeBfY2Ii0jWmmpkiCxvRyBalZQsEnT7TJMtutX1M+s1unU6wx0PLD3Mv/wCN+A1JGZ+NYs4dA7QeF6wGChOCwv8aI1Ei4xLzcNoyAjAguLa5YVv8s10H1A2cvqF1BdVyutjPjxm25XCPStbCWKPcI/yE/KqH5BULgeMFgoDstLEi1c0colCIwIrH8VqvkOtnYsF5vljeLoxNZywq2RvG2gy0NaT7bLLiDKsR8qPlj8UeNTJU4UaOv6By7SNMOj3LN22dLlPZdG3HsQuH1ImXoT+7ieBdex/K7DB22f6uaNKtPC5WaWB7PK5DqurH9xX7Ro3Na2eh0lP8O8if/zLjCpw6Rt+BzeMsgN/euRY9x1bxRrwWCliNyGJsJlT8MwjQgsfmQLiZaJ4/W311HLlBKaRRyd2FruamjUfrTatpYvzufFKX68gZGaDdCtxQg4zlhL1XSKikcZuJ1vZOew8g9kpGmml3q6KmlcpNkV9x4EbR9Ufsb93CSeEz5WWPRrP9z7LKNWV+gal5u5ZaE4FlssfvUv7gtvY7uMkytQYPq8m9Sh3zblrojgVhlC6pHD/nT1iDsLBitF5DYUKUK40oqknIT4kS1TL1221sSyK5oydVMi7Ja2bZk3qrEiNFKzAZE/5MSxOaxKe6dXMGwMtvOL7FxIkaaDiHsPgrYPKr/E+9yo50QeKyz6tQ+8T1Wi/qSb15q1cDoeafHYTOrfF8Pn3aQOTes5tB7LqaJK/42BwUbxuA2jLC6xnH4k5UzQRxsDY2GaRGr2QQW3DC+m+qKVxw6L7WWwnagX/8jOgyHSdNx7kOI9yzbslnM6HvVSIiRbuvVvgkmdpFtvptY0KFSKxPKS/4oULFycn1Yk5bToola710NQ+1SMSM3JKHeQ10oUL7DmTOquB1dk57yONB32ld6RaNsJPL62jU7Q9kHlD0MdK1b0a96nq4HsfgvSzWvNujseyWdO5koS9a+3A2aIiHskMdmGCatHaXWau8pB4VEkbV7RwsVT/sJLPZJyOlRRZY9lFZTINgo/iyZGpGY/apY4bk5n/1lEtXE/aE3wjeycz5Gmy0i+ryO7Tca9B0HbB5U/DOtYvtGvnU4tXsQ+qv2J95klatVxG9bMoyZqoHI+1qweqtSDYbNLspLrf4HWFb6GptYpV150YUMwqcOgbbxlCKlHFufKcWILMFgpqOGhTMvB6NvndyRl/mpfSBW9+LuiAYXdaOLRXRbY1pe/cK/Btql+HVFSJxvHzB3ckUPeTPymMgiGh0oDviDT5EJqcbhw8VRu5kxBUcHtl9NbqTwtq2Ig6KC2KPdhXNgladxRI//omMMeEd1qBIORgrG80iG/IynD8gL5gtX1vKGLO+XgeQRu8s3yKg7xeqrG0i1GXp89K2as/9W0n0RVyUjKCEgJAAAJIF4AAAAKDrR5AQAAAGlScuKJJwoDK2Fp2dM9e3iQ2n6pcl1d2h+BhJCvlhdHUpbXZv1vTdW16vM8KR0yhoZ/5265DAAAwCKXlldVVRV99dVXVFpa6lhfdmLk/AknnCDe3fbLOzHlxALGO//5z3+W+VFkU7ySehAaYLs7EUkZAADSI5fidfrpp0vx8goXJ4anBeU2ZDEyTS6kJkcLl7VeTAAAAOQ1xTE8lPzXRLjSiKQsu7yL5YC/E7LCQ9hDCKlttRT650XyfCHhN7Ty+A4+y+tdJ+Au0dr5XRGVPdejJefYvtevE7Av/yGwN4yGT3EDCaz3mMfx4ipXhoisIwBAOhTJ8FCclECFCJeVx8sh8IvOL5KypIqqujm0hFp06KDGBm+7oTbArRz2x+8Fp0SmjYcpDUK8vJ3y8FA53nAq4hgLu6nJ/otT+aIOi6isow/Cq0VkDrx+HZ995QC5Kf79kPF5UyCdcvmRzbKmRQaEHoA8IafiteaPj9KiRYsCE6/PBvwCMRIuMS83DSMiknJlpc8YeR1t1FJXFyxAciBSv4FhVeiVJSF+YnlsewxAHhHcc34edNUZbUAIWYyIyr4MVCTpQopgXUhlBaBAyal4vdTzF7rqqqsCE6/PHtHCFa1cAo5N5BtJ2aJi3gJh/eiBJm3LJ0qAUhvOpm9jt2tU+7Jxla7YRxzevtIeOyhoxPo4RFx/OCFf/tIiDHGzRZ03IPpwcrRgmSvLYUVv5nPp5VLzzQGuWK2c1c3N/tcTWFbv9fuc1zeidtg6gavudBe0tZ91nbzOLxIxAIXJgLoNT5h8vZrLMqxJRsJlT8OoiYikzCNf66ErhGCQT7RhV7A9ovasjIDK7spKt1jFChOhldG51qjrt/HbNwjxko2Mrht2XnEu3+jDYq+kaMFqhdjHit7sN4K/OF7PVFWW4GjG3sjECUzryIt2HXJUdd0FHLTOXSbLBa0LpH2dvD4qGjIAhUPOxWuP+BHZyW85G/APV4pUhHBlKpJyzTyRv9DqBNHRKF4sSWHsGb3Nq4IWur7IM4Sw6Lqb5rlfzrFCo7vbrRLvu/Drtwja1wfTyLmB5xXn8os+zDgdJ7RowRIt0m8S4nh2G6F+vKjIxC5M6siLdh1l3kjJAetk3YVFWA67TgAKlwGxvKZd/juZxh51qjOfdaIsLrGcsUjKMh5VK63sMBydWwbViwjpHkCSm9BxI1ruSteLSwXvy1jg56DrT4kYkXNNz+vqOKFHC84hKddRWETtsHUAFAc5F6+Pdu2k+26bJNOm19Y785yfLaQ+RQgX52cukrL46l5QSQ1TGjgUrfW1HIZsi6oi84DMqg2Ey1FeQVUtbY5bSxh6lmC5OmrYcLnSjKicjUjSJpFzUzmv3nFC1rHMTZ2wyMQ6gWXliM3aRwq3dapZi7CI2gHrVN052ijuZWSEZQAGATkXr927P3WS33JWsEUqRLh4yl/8GYukzJFqq+r8w9hLNDeZbO9Jsau2+LLvbCeaolxj1G4dx9VRQyfdiMpZiSQdFDlXI5XzhkULTglRzqDIxDqBZU18PMh1SX8CERZRO2idVXfO/dQjLCeRqWjIAAw8OR0eirvDX3jhhWopmYceeojmzp2rltzw8FBJI2eEoG+f35GUs4GwzKo30rwCjApcULBbsryHFvh2+ogLW9NBcd3C1gGQG4p6eKjjKo6XAhWUeH0YLEimyYXU5HDh4qnczJkWMuJrHMKVdbgzjuvvuQAAOaNgBuZNh/yOpAwKBx7xhCMNq0XZySQTVhcDywvkN/lmeRWHeCGSMgAApAXECwAAQMGBkCgAAABAmhSFeHEkZQ5Iueu5H9JOTs/+kHZsON9Kz5xPHz5dK9P29bW044Ur1V4AAADyFURS9nTcQCRlAABIBm7DNLCjJJskF1KTo4XLWi8mAAAA8pqicBtaemQiXPkWSTl5u+RQGFkY0BcAAPKcQSVeW7ZsoZqaGlq1yvM3WqxIBsJl5fFyCK7BXkXKaiRlRttORkouTwgkDw2VsQjALJQQQgBAYTBoxIuFq66ujo4++miaMGGCyrXgF7+RcIl5uWkYOY2k7MUaxy4xEC8AABQng0K8dOFqbGykYcOGqTU60cIVrVyCiIi+WY+k7AproltL1nwiOrBAuhVtl6Nu2fFIEQlX5JwO3hdRdgEAhUNBiRe7A9ktyGJlYyRcrElGwmVPwxDWT95GUtajAwtB8o1ObA1x1Dq918oXaYmo0yWIsgsAKCAKSrzYHcgixWLFomVmcbEesSCJFCFchRNJOSj2lxY1Nyg6sYoFFRyqBQAA8p+CEi8WJxYpW8BMhMshyuISywURSVmKTyWNM9KeGNGJAQCggCi4Ni9dwEyFS+pThHBxfv5HUmZXoDdIYQBB0YlVm1lo1GIAAMhzCrLDBovVXXfdJVOkxcXYIhUiXDxl6yT/Iilr28mwGNxGpVaFYvVMFDurfUWS/k12eaou9yrfcnsiyi4AoHAoqOGhkkbOCEHfvvgiKQMAQGbB8FBpYEdJNkkupCaHCxdP5WbOFAAAQL5SMOKlj1tommwsMQoXLmu9mDhTAAAA+UpBtnnFRojWe6+tovdeXy2ma+jdTX+kd19bS+9s4vQ4vb3pCRn6n20unnIkZQAAAPkLIikDAACIBG1ehcovj7MqDlP3FAAABoCisLw4krK8Nut/a6quVZ/nSemQMTT8O3fLZR35ov7ZS2oJMP0HTkOdAFAk5JvlhUjKno4bgZGU2dLYuUItAImoE/uZAQAMbuA2TANvb8Kw5EK+X5VghQhXWE/Dkvkvqzlg03/LsWoOAAByS1G0eVl6ZCJcwZGU7Rd13SXHynlv6p08RK5P5gBqv+UoahqhFrPCEGq6VivPtYdSlczXzj3iUOrNcDkg6ACAgWJQiRePMp+tSMr2i7rlNy/L+ZL5b1IHfU7NzdZy+erP5frMEyF+SpTGrbXLJdL9RNO/q9bbvP0elc9/jRreVsuxSS4HCyUAAAwEpa+99hq9/vrrMr3xxhsybd68WaatW7fSxx9/rDbNb/TwKNmIpJyfL2phcf34YOp98GWa8pzKYoRQNejLWcIWdAAAyCSsO9u2bZOJdYjf77YucWKdGhSWl1lcr2jhClQugdGLWlpBtvtupE/Yf2W9TB6ptvG4G5P25+0PpxohUvX1Iu+SA9SGihEHUO2hH1GbkVB5LCffsgaVz78cvB4AAAaCghKvgYykHP2iFi/4+m/QSuVGLHmQaJ5vO5gQgMM+Utt8RGUTD0kIR9L+n9MU3T35m11ySxfvfUEhAVwCCCurX/l2+ZaDtwEAgIGgoMRrICMpR76oRwyhctsyYatlxjep7DA/8RIC8EclQs99JARhX6qQHSpM9/dw6L5UqWaNCT1XQPl8gOUFABgoCkq8WJzsQJQsWibC5RBlcYnlsEjKZi/qj2gOWyx28rOUQom5/9u7aOV736Sp3s4ZRqRbVlheAICBo+DavHQBMxUuyxMYLlycHxZJOfJF/fbn1EvfDHAVGpDS/p9Tw9qPqGbGsdSuC9iIQ6kpTNDSLasClhcAYKAoyA4bLFa5jqQc/aLeRVOaPyCaeJTliuPk7WARStD+u6jtL8rF53e857ZRidivXAiYs9+PiVpDO3GkUtbkcsDyAgAMFCXf+MY3kt/UAvsF/ld/9Vf04osvyvkosj08VNLIGSHo22cikrIclgTj+LnA2IYAFA+5HB7qhBNOoA8++MAZDspGXy4oy8uOkmySXEgdDhcunsrNnKkbtk6AG1heAICBomDESx+30DTZWGIULlzWejFxpm7wok4Ggg4AGCgKss0rNkK00o2kjBd1MhB0AMCAwW1efmn//feXadSoUf07duwwSkuXLu0frIiq6hcChqlnCgAoDvze+XES64Nfvl9i3dlvv/0cHbKTrlEF02EDAADAwIEOGwMAR1LmgJS7nvsh7eT07A9px4bzrfTM+fTh07UybV9fSzteuFLtBQAAIF8pqK7ycbE7bWQkkjIAABQxGzZsUHPx4QElitry8vYmDEsupA5HC1dQT0MAAAD5RVG4DS09MhGu4EjKNh1zSqT6e1N1czPNScrri7F9NYnNQ+ij5mpt++pmkcN0iOOoffuaqTryOAAAUPgUSVd5TkqgQoTLyuPlYGqWWMNI9fe3Ux1VUVOvtdxZP06sTSxbeWXG2/c2ETXMsgXJgxSlcupZYB9LpGVEKzvUepuyeurs7yRx2hTRhBAAAPKY4rC8xMveSLjEvNx0ACirX0B1Xa20Mkk4hMU1q4Eq2/tpCY9wZSOEql5fBgCAIqI4LC9JtHANmHKF0beSWrvqaKqRUHksJ2mx2a7GOWIto7ZpnuO4INm9aeVPoRbqooZykT/Ha9YBAED+UERuQxPhsqepol78ShTivP/7mhdSS9V0qvVz+VVVULmaNUeIUXkrTbfdmO1ECx1VE+Xsmary66iroVFsXUNLdNemy8wDAID8oojchiJFCFdYJGUz3G1e0e//hNiVN1RSe2c9+TZXdfVQr5o1pm8jdetiOkXYVD32UUQ556nC1UwVgtVNG9HOBQAoIIrHbRhlcYnlsEjK2UEXuyXC9vGhrJamV7VQW0pevDpqV0IqE6wpAMAgoUgsL/mvSMHCxflhkZQHjjKqX1BHLVM8bsi+ZmoOE7SycVRJLZqrEAAABg9F0uYVLVw8ZeskKJLygFKzhPp7m6hbCJjdnlYyi6g21JCqoSWy/315Yp/IRrgamlqHDhsAgPwHkZRtQRPTsEjKAABQzGB4qDSwoySbJBdSh8OFi6dyM2cKAAAgXykY8dLHLTRNNpYYhQuXtV5MnCkAAIB8pWjavNKNpAwAACB/QDBK4OKnP/2pmgMAgNzz85//3KjNC+IFXLB43XrrrWoJAAByB79/TMWrKNyGiKQMAACDC0RS9nTcKPZIyrC8AAADxaC1vLy9CcOSC6nD0cKFnoYAAFAYFIXb0NIjE+Eyi6RshRDR6JhjjUiR9UjGQcEiOT94VIy+5mrxxZK5cq2/cybNvHO9WrJZT3fOvJ7atnnnAdDBszE4ydx9/frrr9VcOINKvLZs2UI1NTW0apVndAxWJAPhsvJ4OZiaqXXa6OwWHW0tVMcBt0IjGQcJT6aooqruhb7C1tjQpeYzwLY2Wr6lmqq3LC+CF9BgfNGGXVM2rrdYxWqwXHfur2P37t20Zw8HBraG7Ati0IgXC1ddXZ0chmTChAkq18KqAAPhEvMR2kVUXkFVLW1CEmw6qK3FNFhkdqmsJGr1hmLuaKMWUS91ajFdtq0XQlh1IV1YRdS1vujeSACALLNt2zZpfYUJFzMoxEsXrsbGRho2bJhao6MJVoBwRSuXwBuiRIrDVBXORLeurPk5c9hlxwPjeqMUey0x9zK7J639gt2BXirmLaBKGVjSpo+aF3ZT0zz3eGLBx04y2zxsI6ldp46kkadK9RI5Bghr7fqZM2mmSrbHkd2PCe+j5wuP95Ert1Hb9cn7WljrXHnr76SZ17dZ5Qo4b/LXpN/XJefdTp20mR64Tuxv7xx4TC8B5Y4qU5sov1p3vVOgsHUC1zHvFFvbeMsQcE2SNK/Xd7uQ872Z2D76Wqzrv/PO67U8nRTren1iPa/b1sbHt5aT6l7bNmmdU3x7madRdRl0bWHPO+PdXhByXLNrFMS5f77ns4n4TRrwyiuv0JdffqmWQuDehn5p//33l2nUqFH9O3bsMEpLly4VYpkdTjnllP5HHnmk/7zzzuvfvHmzyu2X85x31VVX9QtzU+Va29t8+HRtf/87LSIt6e9/e7FId4t0V3//W4tEahbp//X3v3mHSP+3/93Oc9VewfQ2VfVXNfXK+fY66q9rl7OC9v46quq3VvE8Odu51zFRyzbeY4Zv4ypPb1N/VVVTf6/RsXv7m6qo//rrr5drfNm6on/evBX9W62F/hXz5vWvsBYE6/oXzbCXvfMz+het43kBH8Net25R/wx7hZifJ443Tx1w6wo1r2/jh2f9ukX2uULO6yof41228dsu6Jg6XDcznGtJEFWmGa76mDFjkciVCxHrtDJwPcqFsDL4lZnxrrPOG329Ydv5H3OG/RwZXYu1T/K1MGnUtasM2jGSyqRtG3ltJut4MeDa+NxOof3wbB9x3DjXaH7/gs6n8j3XkPhNRsPvn5tvvrn/4IMP7h86dGj/fvvt52gRJ12jCsryYncgW1dsZbG1ZWZxsUHFFlWUxWUeSbmsdjr754Sd0kcbu6uoIjBGfxVN943rbwB3AnEsNnNq5jVR98JmaUN1NDZQ5QKf6Mx+x+5bSa1d4c5Fy2V4Ko2USyOJja8HHnJ/dyWxbRttoWo67VS1PHIqXVy9mba8KeYPH0Wjt2yTX2Trn9pCVRfb1lzCwpPbdN7u/krUOfU0qu58yvnafGrLTLqQzxV23lQxPab48u7aXE0XT7VqyiFy/9E0UxZewNcltha7KALWyWOqL2P+Er5dfCfzAYPKEAfj641b1+Ja6qdaz5HJtUhGW8+Dl3Tq2lUG7fh+dW9vG3ltAZheW9TzLtG2jziu0TVG1pVG6PkUfGy/32SGKSjxYnFikbIFzES4HCKEi5eNIymz65BaaWWHeOGLuVT1KRDutTiFVBTkXhIWkTlO2ZppYXcT2dH+HVI+9np66IHNtPmB66yHVqTrxDI5D2kKjDxVyHsXrRcvoKe2VNGpp/LyFnqTX0hiTv7OxA/ptgceoHpqludMdqOcShfO3ELLxY99W9ty2uKIazFRLe7FA/SAna7OwpsiZ+T7tYjnbIuajY3BtUU+737kus6izpeb32TBtXnpAmYqXFKfIoSL880jKZcRG18NUxpImFbJlo0R5VRR1UVOx0VuO1Oz1NtDXVUVYguBtIhkriEcebkyuGxBx1ZteYGsf4o6R8+k2/WH9oHbaeboTnoq7Ac2ciSNIm2bbW20vNP+yrOst65m+wHn5S301EPi7eB54EdOvY1unzmatshPRTdW+9tD9JBtrcnMsPMeTqNGa1+WfG1qNpTQY2qwKIt64R+vC9P946COmXyugDLEwfh6M3RdQdcSRk7qenOic5Ky9KzjxHiOYl5b2PPuIpU68xKnrgzP5/ubFJ+57jbC9CjIDhssVnfddZdMkRYXY4tUiHDxlN2LppGU2XVYFcst6I1SnAjvL114bZToEVgzj5qogco5f1YPVcaxvBjev6qOFvj12Q88tihPZ/DIIuuf6qTRSV9QLDajhfFlP/V+nEpX3z6TtogkLbbrhE11+9Ui10I+5MKAsx9wXt7SuSXxwHNjr2PpjfJ3g7GbY1QndY66mBKrw847kqZeXE2d9rqn+FvSj1PptGrlIpGfwOHXkkAc/7braJRmpVpf0Kb7x8E6piikcy6rrMFlcF+TTqrXG7Zd2Pm8BF1LGLmo69E0aotlCc287gEadZ19nLDnyL8uI6/N5Hl3kUqdeYlz/wzP5/ubzCyIpGwLmpgiknLhDg/FPRefOu0BKmiPGchD2FpYTqNuvy1rL+HBSiq/SX7/DB8+nG6//Xb65JNPqLS0VH7c2+jzBWV52VGSTZILqcPhwsVTuZkzBQUDuzmy1CgMAEiBHPwmC0a87DEL4yQbS4zChctaLybOFOQ/6m9i2M1h96oCAAwguftNFkU8r/efqrF0ixEz9ry8Rut/Ne2nEvEfR1IeUb1CblNsYFR5AMBAMWjdhqlyyGkddOjpKlU9QodVW+lb318l27ZGcJqwir49YbWcFqtwAQBAoYBIysAFf/kAAMBAYWp5FYV4cSTlJBeh4ztMzPOkdMgYGv6du+UysOBBMvlB4hFNXnrpJTkFABQXW7duVXPxOeSQQ6SOcJBJEwaVeCX1IDTA7rSBSMrp4RUvAEDxsWnTJjUXnxEjRtC6deto/PjxKieca6+9dnCJl96DMAp9+13PCfE6YrqYCxcuzv/g9ZV08F9DvHR08QIAFCc9PT1qLj6jR4+mRx99lM4++2yVE87UqVNpx44dEK+dQrwOPOIiviixFCxcPP/+Gx10SIh4cTiRtqn9tMQZM5BDmSykil4tCCUPfNs2lfrnbaTq8laarq8zwueYWSPoXIn8fzrKEq+csmkxTT5pBU17djVdMVblZYQ1VH/gRbRULRH9Nf3SOQeva6Rj455zTT0deJE44l//kp5dfQVltLgA5AnPP/+8movPUUcdRQ8//DCdf/75Kiec0047jbZv3y7FqrjF61kWr78Rc+HCxfPvvy7E67SQ+Fm2MNnqxQPdljcQNfVSp3r7c9j9WbTMWY5P/onX4OERumLvf6XjXn6S5orr7Vt0Bh27/GJ6+cm5VOZZ5493G14WP8iHv6LF58kNABiUPPvss2ouPmPHjqXf//739KMf/UjlhPPd736XPvjgA5dYMfpyUXSVt4Q4Wrh4Xml2MBxJuXujE7axb2UrVTY1CZvaHmG3j0RW6qFQ8pC99tprEKVS+bd8pWr5mGt+QXV//h098lryOv/k3YaXq+j4Y/RtkJAGX2IXXqrJ3t97zKBkQlGIl0W0cEUrl8AOOSLVyxKqitpxVNnSJmwVppd6uippnNQutl7ckZWbm+1YWiVUnQijzOYaVTv5G1WmQlvHyQ5+zC7MRCBk/VwC3keu7KPm6uR9zbH2d+3H1mc1xwxT5+zQy+5/TSUlc1T9WPtYEaarqTrq2Kqefa8hoF7c57DPG5/kiNN8XD0i9hzXsnPtxuVS16jVH2/Llru9r6s+AQAOxSFerElGwmVPwyijcZV2KBMhVDKeF48Y300b+T3DoU3qppI3jJaFeMn1TJWWIIc87nJC9ouXWHkDVbbz6B/9tEyIYyI4iXtdf28TdU+xXuo1U+uopU29GcV5u6s4Rqb1smOLUEbJ7Gikhsp2a1+REm11OuplrF6YVrIDVarR7+3zCDraWqjOCXIp9l1ItEyVjRpmJcRatvepcrcTLXRexF3UXbFM5HdSZ+ixFb7XEFwvFvY5lgTcC4u+5oXUUuUfk61miTq2KHxdy0Jx7BpawvPC0mri61qyxLVsuYnjlkurP/FMcJQBdjnLfV3PCABAp4jchiJFCJdpJGVHNFioKsfJF215hSUcfRu7qSowtLJ4ydnRIWumipeeEry+jUJ4EoEjy+oXJMKj8DqxNNV+A5fV04I6JZ6aC7OjrZumL0hEeHZcl7xNy5SIL3j1MuYXppP4pazgsjqWZQe1uYJcin2XKbHRyybLrYniFGGfOK5VLZRM6LEVftcQVi+SsHA1iXKVN1RSe6dPtGnGL+J0FLHLpdWffCY8dWM/IwAAF8XjNoyyuMSycSRlJRodQqjq1FuK43tRz8rctnc5Lkx+6QvroYaXe6iXg0xKi5C3qadOcY3LxPc8v4gTLqw41NC8pm5pObGl0h0YgLOPRJVo1KmIzSr5mn0Gx87INejoYh1gmbHrL9Vo1gCArFMklpf8V6Rg4eJ840jKUjQaiIMVO0ZWGbd7NVCD094VA963q4Ea1UtZurKsWWudWHI8a+KlurDF/rK3Ijq3zrJf+rzcTW2NPUlRlMvqO6lXvIG7U/yMl+Lc2kiNSeLc5bgqrcjMqmyq3AlXYTCJY1f6B9BUuK4htF4yQKrRrLNdLgCApEjavKKFi6f8JW4WSZlFQnyKu9pKuN1LTALbu8KooSWqvYMti1lCGh2XHa+T7SbK/SbbkRLWgnzxixerLSi83N3SnRAYx/VlucjCxCEUdn9VtlBL5QJPl/oqquyxLKIS2dZjl80qNzWUO+e3Oj34ID8G+NgBded7DeH1kjaBEae9EbG9ZLlcAABJyYknnije1dbLWp/u2cPdxvvlD7Cry+yzM1//zguRlDOD0R9oAwAGJRs2bFBz8Tn66KOlPvDIGSZUVVXRV199JbvX2x+udmJ4WspDcOzcuVOmXbt2OfMfffSRTF988YXcOB9gQTJNLqQmhwsXT+VmzhS4YPeXX2cKAADIMKw7H3/8saNDrE22PtnTgnEbshUVN9lYYhQuXNZ6MXGmwEL9jRW7v+xecQAAMMAUTZvXe6+tovdeXy2ma+jdTX+kd19bS+9s4vQ4vb3pCXr71SeFZvXLKUdSBjZlVN/J7YF+rsEaWuKbDwAA2aVkzJgxLjuD27n0tq+hQ4e6rJgwstnmBQAAYODIZZsXN/3s3r07qZ1LnxbP33kBAAAYNBSFeHEkZQ5IyXG9ODwKjzK/Y8P5VnrmfPrw6VqZtq+vpR0vXKn2AgAAkK8UjNswqQehAXa5EUkZAADSg3v4pUNRuw3tXoQmyYXU4mjhQk9DAAAoDIrCbWjpkYlw7YnULncYEob/UFcfNVzAI0LwRjw+nnedET7HzBp8rqCwIRkuR8r1YcPlSfyxIqfchQxJoS7Svl4vZuFt9JAq6YSEASCfKZKu8pyUQIUIl5XHy8G4wpAwavR0Z3w/gTOyvBxQtpi7knte+K76SFUY3SPgpx6tOhuEXW8m6KVxC9S1yyGo/IWpt6eL6uyQLBEhYQAoVIrD8pKCZCBcYl5uGoYWhoQphkjKIF+ooRpbieQAwEFUJQaMBmCQUhyWlyRauKKVSzDYIykbl8P+6g+6Ls7Xow7z1nYZveuaQ6I1GxJQR0n14lpW8ynck+goy/r1yl2iyxhUDj8Cg55yWJpEvLLcuVUByC1F5DY0ES57GsZgjKRsE1UOHiFdlcMTGTn5unj0DT3qsH5i77r6iGjNOokXc0IAgusomlTuibiCyCjL3oqOKmNQOdw47VltYlvfm2mPiMKpnSqdyNYADC6KyG0oUoRwFW8kZUVkOTTh8ERG9r2uOJhEVJYocZAvZyXGYXUUSQr3hIkbZTmyjGZ1yDHN5LVPbRPnjhJoK3yL3h4LwGCheNyGURaXWEYk5ShMIiOnimm05jyA3X8DHWW5Zgm1Gwp0ZezoqADkP0Viecl/RQoWLs4v+kjKBuUwiYycKsHRmiMIraNyqqjSXvJsLavZUMLqIpUoy6FlNKSjQ3Mlig+WFrtjRoe7bc1GngOdN8DgpEjavKKFi6dsTRR3JOXocpBJZGSHsKjDPuvYleYbrTmKsDoqs9rT7HVtbD+aEFIXKUVZDr+PRpRvpIW8r0xs+vl1w2chs8/BbWwY9R8MTgpqeCjTcjD69oikXDgkR2sGAOQDGB4qDfiCTJMLqcXhwsVTuZkzBTmH3VyI1gwAMKBgxIutqLjJxhKjcOGy1ouJMwW5A9GaAQDxKJo2L0RSzmfCojUDAEAyiKQMAAAgErR5AQAAAGlSFOKFSMoAADC4QCRlT8cNRFIGAIBk4DZMA7sXoUlyIbU4WrjQ0xAAAAqDonAbWnpkIlzFGknZ+rqxUq7O60EbCSQp3Eqs8uj7BO+vhzQJHLRYKxNCiwCQXwwq8dqyZQvV1NTQqlWe0TFYkQyEy8rj5WAGZyTlxEjtcgSoWTHiaGUCFnlnoFuReitoo3d0pUwizrdxqjpXYNgQIXxOmRBaBIB8I6fiteaPj9KiRYsCE69PFRauuro6Ovroo2nChAkq18JqwzMQLjEvNw1jkEdSlqE/uuxgmzlCH+iWEaJfn81RNlzH54F71ayOKy4bj3ifiJUGABh4cipeL/X8ha666qrAxOtTQReuxsZGGjZsmFqjEy1c0colGOyRlL2kdW417+zvdgfOmcOBFUUex6/qaqBZQaZNb+IYQXWWOHZc9PuVwBuXrWxcpRa/DAAw0Ayo2/CEyderOTPYHchuQRYrGyPhYk0yEi57GsZgjqTMerCQWpzR8tM8t9yfR09X+3uiL3dXLBP5PLJ6DS3p76XprdaI9W6BFXW2kGiZ3N9bZ0HHNqdjzhTqbpoXcL8AAPlKzsVrj3jR2MlvOQx2B7JIsVixaJlZXKxHfGyRIoSreCMpqzAeQjg4bEp7pxpfMN1zq/bAoOjLbteqGiJKhQ1JCJioM3u8Q2+dBR7bBMsiXVjRS50YkwqAgqP05JNPVrO5Y9rlv5Np7FGnOvMmsDixSNkCZiJcDlEWl1gu3kjKiQ4bliVkgMm5JTGjL4vyLmuqcneKCSTVyM4sXLPYnAsULq+bMPyjBACQa0rr6+vVbG74aNdOuu+2STJtem29M8/5JugCZipc4r3G/4oULFycX/SRlL2ke261f6Q7r6M50V4mLbeuaKEwPbYf0pXqF/CyI9F2Jy1Wux2zgxrFvS7UTjgADEZKDzvsMJo8ebJazD67d3/qJL9lE1is7rrrLpkiLS7GFqkQ4eIpf70XdyRlL2meW+1PUdGXa8ZRj+3+KymXbXTRrjzDY/vAVpSo7MR+IiW5VdlibSeaItcHRS0GAAwUJb29vf3cEYItGOass86iyy+/nPbee2/67LPPaNmyZXTbbbfJdVFEDQ/F3eEvvPBCtZTMQw89RHPnzlVLbni4kKSRM0LQt0ckZQAASI9cDg91wQUX0LXXXkvPPvssHX744cTNW6xJbFj813/9F/3617+m0i+//JJGjBghd2Dhueaaa2jjxo3yJDNmzJAClimOqzheClRQ4vVhsCCZJhfSkAoXLp7KzZwpAACAgWTixIlyOm3aNClob775ppw/55xzqKSnp6dfJLruuuvoV7/6lRyI99Zbb6Xnn39eqtzYsWPpD3/4gzxAFNkcmDcd3v/fKXTImMlCl4KFi/M5EOWIo8+wphNgeQEAgM1AWF4ff/wx/exnP5N57N6/5JJLpFH12GOPJbrKT5o0ibj9i11tLFw2mbS8BgwhWoikDAAAhUVvr/vPX9jy+uqrr6S3UIpXd3c3jRw5kvbZZx8677zzaOXKlVIlH3zwwWQXXAFyyGkddOjpKlU9QodVW+lb318l27ZGcBKW1rcnrJbTEdUr1J4AAADykdJPPvmEnnvuOdq2bRtx+9cjjzxCtbW1TpvX6tWr1aYAAABAflC6bt062aPj/fffJxay4447Tq0aPCCSMgAAZJaGhgY15yYoP9OU2t3gWcDWr19PY8aMoZtvvlnm5RPe3oQmyYY7nnAk5QOOmE4HHnGRSH9Dw0ddKNI0kX5EB40WadQP6a9Gn09ff/a62gsAAEAYXqHKlXAxrrEN77jjDvrtb39Lxx9/vNPmlcs/YI6CO5OYJhey77vqaRjR49DaFgAAgAm2YOVSuJikgXnvu+8++tGPfjSo2rwsPTIRLkRSHrBIyjGRkZANR9RIIuX74kMmj2XjG1U6TbJRTlDUNHEcQ4UuXHp+qnCvwiuvvFL++ZbO2rVr5UAXP/3pT3M/qvyAwIpkIFxWHi8Hg0jKeQCPsdhdR3XdCw1fxp6PgbTuSyaP5QOLTDaiShfMswgKCa9QZUK4TMmpeGUzknIY/BIwEi4xH6FdrlAgDCIp5x4ZL2z6PJrHAwPnc0FTIddRpQFIE1uwcilcTE7FK1uRlM2IFq5o5RIUVSRl65hOxGPOCiiLRcC5XPvYbjC/bU3Kmvg4kAMDyxhiOt5j8DVMoRY79pc8qF1X1rau87DLrtqyPKVrUh0nsV/QsXhnQWD9qO2C7r9NWFRp33q0jmvdo2qqDrweTzmT6snO9jsHAOHkWriYAXUbxo2knDKsSUbCZU/DKKZIyowe8Ti4LNbLsJxap/d6zsX7+EQ89iuXSVldscr0DwnGrww1tESctM52jboOWkb1C9xu4I62FqpbYAW/rFliHaOf929hF2XYsZiw+mGC7r8On8MvqnRAPUrse9RJnSHXkyDmvQIgD8m5eHkjJ3uXswH/EKVIRQgXIil7IilLtIjHYWVhUemqSw65EhTx2K9cBmW1XIZ2rDIrpliDEwgtoAxh8H3Q4na1dSfuQ6LjBFtbBoTVjyTg/ifhE1U6qB4l2j0Kux6buPcKgDxkQCyvVCMpp0WUxSWWEUmZk2Ek5Vj4RDz2K1dkWTkoZJewWBIxvMrFsviSUC/rVKiheU3d0sJgq9MKrClg95nTcaKXmoRVm3NEfbijSptEjg64HmNSjU4NQG7JuXilG0k5FcRvkP8VKVi4OB+RlCMIKwvXSZVPZOOIiMd+5QosK1u6wkLt1V+uUlhUmYLKEIHVdtZIja1asE6944S0VGRuOKH3ypCgqNIR9ajjez06Kd4rAPKJkjFjxshXu439UrDnOURK0h/9BsB/2AwAAAD4YRoShUdI2r17t+NhYZKmmRQvAAAAIF1MxGtAexsCAAAAqQDxAgAAUHBAvAAAABQcEC8AAAAFB8QLAABAwQHxAgAAUHBAvAAAABQcEC8AAAAFB/5IGYAiZfgv31JzIIgdP/u2mgvn0UezE4twMHH22WeruWgwwgYAIBCIVzRxxItfuMAf1hCIFwAgI9ji9cYV+8kpSDBm8W45hXhlhmyIF9q8AAAAFByly5Yto8cee4zWrl1La9asoWuuuUatIpo+fTqdddZZagkAAADID0r3339/uvbaa6VIdXR00HnnnUf19fVqNQAAAJB/lLa3t9Ozzz4rF+644w5644036JRTTqETTjhB5pWWwrMIAAAgvyi999571azF9u3bab/99qODDz5Y5QAAQAZ5bD6NGTPGSRfe+7pawTxG88dcSIms1+neC8V28x9Ty8WCum67ni68V+TkCu89yE9Kn3jiCVeb10knnaRWWezZw2HyAQAgA7BwzX6FbnjiDenleeONJ+j8h8/0CFiCx+afSQ+f/wS9cctElVMEvH4vXTjmTOq92q4jke4gWlts+h1B6ZlnnkkTJ06UbV6TJk2ic889ly666CJ6/PHH1SYAAJAJhDVx5/3046UP0aVHqiw6ki694waiG5eI7303r997Ic2mpfRQYuMiQNTRtTfSMUvfIJdeH3kpXVpE+m1CKYsVAABkndfX0sPP/Jgme1/CR55F55/yCr2mG19r59OZD59PTxSTxcUE1ZHGY/M1d6LjTlWuvnsTLlm3Net2Qzq7SSvPzp+f9AGRz5T+4z/+o8tVyF3l0dsQAJAVTimno9Ssm2eo9zU1K+ZvvFFYaFdfKuyyIiSwjiwm3mK7E5fSj++/U2ubEvXWO9lat/TH9IxjzbJwKferckNa3wRC8M58mM63XbhLie7M94YuDdmVkHsZ2m1e/JfNcBkCALLCM73kaJSLU6jceWOfQjcsvYFemZ3/nQayQmAdKZwOL7PpfpVlIeptjjLZJk6mH5OyZpU1d7XX/fr6a2ILIXhnKstr9v3i1KFnzitKuX1Lb/P6yU9+Qs8//7xc2draKkUNAADSRroH76fVSY1b/HI9ho7S361HXUoPLT1GvFgLy5WVNkF1ZMNuvtlES6UF9QTdcIrKT5kfq2OpVEBuWvwRFwAgRxxJl179Y7p/ti5I7Lq6kYTJQEmvzYm30BM3vEKzc9pNfKCx60hrl2KEaN3Ly6/10jO2W1GKPs9EoAQxySV45FF0jLDdCslVqAPxAgDkDiFI3LYy2+kkIM2IwB6FR176EC095kY6s5gEjOvoCXab2nUk0rVEZ7G6T5xDN5CoD5nXS8cYWV5CEB9aSsfceKZzPEsYJ9It4jzCvE2cp4D+ng6jygNQpGBU+WAwqnxmwajyAAAAgADiBQAAoOCAeAEAACg4IF4AAAAKDnTYAKBIsTtsgGDQYSMzZKPDRqh48Yjyw4YNg3gBMAiBeEUTR7xAODkTLztBvAAAAOQSXbwYPxFDmxcAAICCA+IFAACg4AgUL9s0AwAAAAaKIC0KtbwgYAAAAPIRuA0BAAAUBLpBBfECAACQ1/h5AX3FC+5CAAAA+UwphAoAAEChkWR5QcwAAAAMNKxFuh5559HmBQAAIG8JMqhKjjzyyH4eBkrHXubpkCFD5DwAAACQKz777DM5tcUracrixTO6gOni5Tdl9HkbvzwAAADAD69VpS/zvFewGCfPT7wYr2AFrfcSlA8AAADY6IJk4ytSPnmMI15MmEAFzdtAtAAAAMQlTMS864zFi4FoAQAAyDZhQsV4l129Db0rGZfSiXk72eh5ej4AAAAQRJB2eJcZ7zLjsrxsgqwpWF4AAACyga9A+eQxnB9reKigg+sJAAAAiCJKO4L0xM73tbxswqwqWFwAAAAyTZBoMfq60BE2og4Sth4AAAAwJUpT3OuI/n91rSuRYj3gYgAAAABJRU5ErkJggg==;clipPath=inset(2.06% 2.33% 3.18% 2.33%);" vertex="1" parent="1">
          <mxGeometry x="-676" y="370" width="431" height="381.24257044961894" as="geometry" />
        </mxCell>
        <mxCell id="GklHYiAxv3OfYElgcjRT-2" value="" style="shape=image;verticalLabelPosition=bottom;labelBackgroundColor=default;verticalAlign=top;aspect=fixed;imageAspect=0;image=data:image/png,iVBORw0KGgoAAAANSUhEUgAAAuMAAAFDCAYAAACQiQDXAAAAAXNSR0IArs4c6QAAAARnQU1BAACxjwv8YQUAAAAJcEhZcwAADsMAAA7DAcdvqGQAAGBDSURBVHhe7d0NfFTVnT/+T3iOz/GBhyBQA0GNNAUpKiGWPkCWJC2b7dq0xlak7hLFFWIxte2PldiyvrYbWQP+QcKuIq6NbtbuZtEkNrC70gIqiESKQZMQDZEEEEXlIQGSzP+cc8+duTOZO5mZTHIn4fOWa+49995zzz0zmXznzPfeiQHgEhMREREREfWxQfonERERERH1MQbjREREREQO8UpTycnJQUlJCT788EOcPXsW586dc/+0mxYsWIBFixZhw4YNuhYiIiIiIgqG18h4YmIiVqxYEXQg3tHRobYfM2aMroGIiIiIiILV5QLOgwcPorOzU00y2JY/vzx7Gp+0ncA1w67AUAz2Wienb3zjG3pvIiIiIiIKVpdgvLa2VgXYX5w9hSOnP8UnrSfQ2n4WnS6XCMYvxy0jTuKSjkNo74jBcdcEnMBYfOtb39J7ExERERFRsLpcwPne8YP44+G9ePvYATSdOoozKhDvhEsE6DdgH0a178bF7R/jsvMNuK6tCleffVfv6c8iVIgg3uWe6lCUolcREREREV3g3CPjP/3pT/Hss88iOztb5YqfP39e5YVLp0+fVsvm1N7ejt1Ft8LVfg7n24Frvv/varuuZDCej9pZicjbCaQU1WFHZjlmJeZBLBIRERERXdDcI+Nm4H02biKGxd+Im2d+A3+Xl4elDz+Mh3/5S2Rk3YHxSdMxJvFrKiDvPH8WnefaMOjcF2q/YOzMK0TlpExkc3SciIiIiKhrMD5skAvfS5mCpX+Xi1tTUvDVadOQ/PWv44d3/RCZ307BiCGDVDDuOt+mprb24Wq/0MlR8zpUVNTB5aoQS0JKEeosaS0VqlCzrKsrKlL7GikvXetZVOGpw+WuxNiuaJGnHrlKjtab29a5c2hSUFTnqcOrHUREREREEeIOxmVqijR5zBWYl5GOyy+5BG2nTuFIUxPOfPEFhgwejJRvzsZN11+n0lRc59pEUO7CB8O/o/YLRkpRPtLry1HqzlGZhMTaBYiJycAGGSzvWIq63BixLKZZq5FYbAm4LesWIBPpan+TtR5gQ4auIyYXlen5ljz1SViaDyyQ63IrkV7swiZRm9pWLE9aulwF81i0HEvrcnUdMcjgLdSJiIiIqBe4g3E52i3dnHwDzrV34HBzM7ZUbcXTz/wOb27fiTNffikC8iGYPn2aCsb3uBLxzsU5ODForNrPngiAdxgjzDuW1iHXK1+8HuVmZJ6ShERUoswMfHfmobByEiZPEfNyXf1qrNTrVLqLMatZ6pEWVehR7WKfoL0eqxfo428oE3VY9lPLiUiSgfv+WtSnF1tGyomIiIiIIs8rTSV+7FjEDBqE02fOoOXIEezY82cRlB/F9l170XrqtLrac+iQoSoYf901AUc7Bqv7jQcmAuBZ5ki1MXLdq2Q6SzGQq443C6vrdXkoxBuBRLH/AmximgoRERER9RqvkfHmw4fR1tqG1tZWDBk6DCk3T8GYkVci9ZapOC+C7uPHP8XJUydVAN7R0YmmtuNBBONB2lmDOqQjywx8RVCdn65HyuW6SUuxXK9T6S7GbFdTJmNSfS32y/mUbGROUqVh2ZmXiFkimk9Uw+VERERERJHV5QLOffsP4PTJU+gU8+Ov+wqy/yoT199wA0aNHIkOEbDv2/uuEYx3duDz86fEdFrt13MbkKHyxPWFkzsyUT7LHEkX63SOt1y3CeU+aSoWG1ZiNZZih6xj02TUhTMy7k5zMVJrCuV9GYmIiIiIIsx9n/Gvf/3rePvttzH/znsxN3U6JiRMxKBBg1R6ydAhQzBs6FD8+d29KCt7Bdv/9DoWr12uvqnz4phhePxvfymr6DsyFWXHZBT2RdoLEREREVEv6XIB55nWVrz2fzvxx9e3oflQI1o+bsKhjz7EK2VlKhA/fVKnqXSao+ORGhkP3qLlSz2pKERERERE/ZR7ZDwpKQk1NTW47rrrVGAuL9KU05AhQ9Q3cBp54sYkR8QXr/1/6NSpHE8/8A+yil4k7/u9A0vd+d+VyOWoOBERERH1c+5gnIiIiIiI+pY7TYWIiIiIiPoWg3EiIiIiIocwGCciIiIickjMmDFjmDNOREREROQAjowTERERETmEwTgRERERkUMYjBMREREROYTBOBERERGRQxiMExERERE5hHdT6SdSUlL0HBERERENFAzG+wkZjO/cuVMvEREREdFAwGC8n/ANxv/yL/8S//3f/63Kzp49i3Pnzrl/2k2/+MUvcOedd+LFF1/UtRARERGRk5gz3k995StfwdKlS4MOxDs6OtT2I0eO1DUQERERkdM4Mt7Hrr76ahUYnzhxQpcEx1+ayvbt29HZ2akmWaf8+eXZ0/ik7QSuGXYFhmKw1zo5/fCHP9R7ExEREZHTIjIyLgPMxYsXIyYmRpf0HXnMGTNm4KKLLtIl0Uv203/8x3+gtLQUV155pS4Nnwyy5fR520nUfd6EN4/ux57j7+Ojk0fE1IK48wcw4dwWjD/3f7jk/EdqWyIiIiKKHj0Oxs0Ac/ny5Sog72tf//rX8Y1vfAPZ2dlRHZBfddVVqp+uv/563HTTTfj3f/93xMXF6bXhee/4Qfzx8F68fewAmk4dxZn2s+h0dcLV2YkbsA+j2nfj4vaPcdn5BlzXVoWrz76r9+w98pzkCH5zc7Oa5HxPzzNckyZNwr59+zB//nxdYpDlH3zwgbuNBw8e7LJNJNgdP9L66nyIiIgo8noUjJuBuAww33//fbz00kt6Td957733cPz4cRXsRmtALtv28ssvq34yyYBcjpCHE6imp6ejpaUFLxZtRPmal1D+5Iso+6fnsbnw3/DSYxvwwqPrsPCh/8St9/0Ppuf+L1znz4npLEafeUPX0DtkAPj222/j97//PeLj49X0j//4j+pxCVdvBbQyx/6+++5Tbdy6dau6uNWpNw2RMNDOh4iI6EIRdjDuG4j/4Ac/wKeffqrX9p0zZ86odkQyIE9OTsa6deswdOhQtSx/rl27VpWHyhqIy9FLU319fdgBubwgUzobNxHD4m/EzTO/gb/Ly8PShx/Gw7/8JTKy7sD4pOkYk/g1nD9/Hp0iEO8814ZB575Q+wUyfPhwzJw5E4MGhfbUkOcgA0DZb6tWrdKlwObNm1FcXKyXolNhYSEuueQS3H777brEGeH2va9oOR8iIiLqXlh/9aMlEDdFOiCXI4xZWVnYuHEjLr74Yjz77LP4q7/6K9x///16i+D4BuJ33HGHXgPVZ+EG5GYwPmyQC99LmYKlf5eLW1NS8NVp05D89a/jh3f9EJnfTsGIIYNUMO4636amtvbhar9Abr75ZvWm4y/+4i9CCgpl4CcDQHm7RTtydFumUJjpFMuWLVPl5ui37G9znQzgZXl5ebl6vq1fvx6VlZXubf/whz+oPpXLdvWGSx7HrEvOS3ZtNFnbYLYrVOH2fSCh9pd1XUlJiftTCX/1BOqnxx9/3F2PrF/2lbmt2W/yOW9Naerp40ZERNQfhfwX3xqISzfccAP+/Oc/u/+g+psiRf6xtptkoCzbJvU0IJe3APzf//1ffPvb38aePXvwne98Ry3L8lD86Ec/8grErW9Yjh496hWQf//739druidTEqTJY67AvIx0XC6C4LZTp3CkqQlnvvgCQwYPRso3Z+Om669De3s7XOfaRFDuwgfDv6P2C2TXrl04dOgQxo8fH3JQKM/P7k2ZDNLkiK0cOZepFPINz7333qsCPUmOCo8ePVqtkyPr3/zmN1V5ZmamepMlt5fpOZLc9qOPPnI/BwPVG4z8/HycEv33pz/9SS3L48i65LUIY8eODdhGeV5yWrlyJR566CG1bsOGDarOUPWk7618zyfY/vJ9jE6ePKnejJqs9cjnbaB+kn0jr+eQ/SR/PyXffvvpT3+KL8TzVZab64iIiC40If+1l7fHkwFetJPtdLnCu2ujHE1euHChCsAvu+wy9VMGDuaIdLBkUPOb3/ymSyBuMgNyuc0zzzyjS7sn2yfdnHwDzrV34LB4w7OlaiuefuZ3eHP7Tpz58ksRkA/B9OnT1GO1x5WIdy7OwYlBY9V+gcg7rvzP//yPOlcZFE6dOlWv6Z58EyQnf5KSktSbCHPkXKavNDY2IjExUS3LdU8//bSal9vIZbmPP3KdHDGXuqvXjgwY5Wi7fLMog8O7777bfbtJGTzK8j/+8Y9ewahdG+UktzPrk/vLvgtVT/o+0PkE219yndxffhIkycD89OnTal6y1iMF6id5rYA8vjyOfDNl7mftt7q6OkyePDnq05iIiIh6U8jB+GeffabuVS0vnJTkCNm0adPco1v+pkiRI2d2k/yDLtsmffLJJ2r0vrW1VS2HwwzIZUASTiAuyTcDMngLlMIjA3IzwAuWbEv82LGIGTQIp8+cQcuRI9ix588iKD+K7bv2ovXUacibTA4dMlQF46+7JuBox+Cgbm0oR2PlJwHDhg1To7TV1dV6TWByFFaOxspvBu0PZEAoR4Xl89Mc6ZXk6O6CBQvUaK/8xEL2QTBk0Cr3MZ/z5ih+KMLte8nufHpLuP1kJd8ITJw4Uc2bb2KIiIguNGF9Di6DXpkGIgNy+XGzDHxHjRql1/Y9massR5jlvbsjEYibZED+5JNPhhWI9ybZrubDh9HW2qbOc8jQYUi5eQrGjLwSqbdMxXkRdB8//ilOnjqpAvCOjk40tR0PKhi/9dZb1aisDK5kfrD8hCEYchRU3kVFBlTWoEoGbbm5uaipqVGjt2awLstlaoM5QhuuSNcrR4jlmwr5BkrmwQfzvDbbEE5qilW4fR+KQP0l18lgXr75lOT5WEe8rcLpJzvy+fHKK6+oUXIiIqILTXhJqYIMvqIhIO+tQDyamW8O9u0/gNMnT0GGbOOv+wqy/yoT199wA0aNHIkOEbDv2/uuEYx3duDz86fE5Ek5sPPOO++4L9QLNRiUn1DI0Vl5v3k50ikneYeV0tJSNVIrgztznXyTI+9N390Irlx/WLzxMC/g9BVuvXbMFA35vJb1mJ+2BGK2Yc6cOe7z9tfW7vSk74MVqL/kJPPdzfSTSy+91CtNxSqcfvJlHkdOMrVGfgpFRER0oenx1+HLOyLIYEt+VF1QUKD+mPel6dOnqz/kx44dU3cuifZAXAYekhyBDIX16/DlSKa8n/f8O+/F3NTpmJAwUaU4yG8jHTpkCIYNHYo/v7sXZWWvYPufXsfitctVcHdxzDBsfHSNqoOoO3LUXF6YKi8uDvfNDREREQUW9si4yRwhf/TRR/s8EJfk3U5ef/31fhGIR4p5AecZcb6v/d9O/PH1bWg+1IiWj5tw6KMP8UpZmQrET5/UaSqd5uh49yPjRCZ5hyIzFYWIiIh6R49HxqlvWEfG5acRMr/3uuuuU4G5vEhTTkOGDFFpBUaeuDHJEfHFa/8fOl0udUFp2UojvYDIl3xeybuefOUrX1HL8taG8taSHBUnIiLqPQzG+wlrME5EREREA0OP01SIiIiIiCg8DMaJiIiIiBzCNJV+QqapEBEREdHAwmCciIiIiMghTFMhIiIiInIIg3EiIiIiIocwGCciIiIicgiDcSIiIiIihzAYJyIiIiJyCINxIiIiIiKHxLgEPU9ERERERH2II+NERERERA5hME5ERERE5BAG40REREREDmEwTkRERETkEAbjREREREQOYTBOREREROQQBuNERERERA5hME5ERERE5BAG40REREREDmEwTkRERETkEAbjREREREQOYTBOREREROQQBuNERERERA5hME5ERERE5BAG40REREREDmEwTkRERETkEIeD8Wasy8zGyHF6yixDg17T93Yjb1w+1nVpgCy3tNHvNpEQ6PihlBMRERFRf+FcMN5QhrRxeah9qBTHmvT0FPDaVr0+LL0VoE5AwTajjW8uBwoedPJNAxERERENFA4F481Y92AJkjaWomiOLpISsrDYuhyFEnKzkbNvB15jNE5EREREPeRMMN6wC2X7UpERKPBWI+ee9JA894i5Hv0uXuNel1bcrMsLUYJGFMwW5ct2u7fNW5YvtluDKrm7bb3hqVrmqcs4pmTXRs2rDbpdPdVdf231rJfrGoplnxjLvd42IiIiIvLLuTSV5PGYpGe7EgHkbGPkXKWvbMtBzUJr+okIuGtnGus2pqJ65csiaJyBoqZ85JgpJatmuLetmfyQ2HYJ0rqtt3sNxaUoSZ6FeQnGctoqXZc8dmlpN22UZBt2IEunvRzbCDxhDYb90m8w3EGynOQbD1MQ/fUksF63pWRhNu6D7BNjuWdtIyIiIqJwOReM7zuEej3bRcNh1MAycp6QhYezG1HrDi5FwP2ADrbnzBQBeBPqbQPqCciaG2/MdluvHU8wfNvKcXihPAs6Fge2mqPf1uBYsmmjaoMluF64HdW1h43tbHly1j2TfOOhBdNfT+k2q7ZY+qTHbSMiIiKicDkTjCfcgqzk7ajoYYpI37EGw3KEXZMpHQuBF1R5EQqSdXm3UvU+enKP4keDaG4b0cBXXzUXMb9daz9YQUREA4pDI+PxWPyQkS7hlbMtgtt1cjlhLJJgCdZF+ROl3eSYByPS9TYcQrWZbqPy4FVpYLoNEU3/iNR59UbbKGTnzp3D0aNH8f777+PYsWNq2QkqKFx6lffEINFxfh8XMeUG8/pDRERRx7k0lTlLdG6zTomQ04PAPBVAzkCRdZ3KY7aMSNuagYxsnWbhvpjSKtx6bcy5AwUowW2q7YeQFNTIuNEGrMzznLfftoYiUufVG22jYL399tsoLy/HwYMHMXjwYFxyySX49NNPVVBeU1PjTGAe/2vUrf4ULjXtQhFWIHHpElTq1eQQr8fFmIqD/mQuMI7MExH1rRiXoOeJyEEvvfSS+nn11VcjKSkJnZ2dapK/ovLnyZMn0d7ejqFDh2LUqFG44oorMGzYMLVPb5BBWeLeLNQ98oDnYuujazHr8RWYcu/xiAV/5M1vv1t0t76nert+IiLy5tzIOBF5aW1txZEjR7B7t/9PIy6++GJceumlKgD/+OOPsW/fPjXJlJY+GzEflYgpelZyj6LuW6LTJTyj5mqdNZXi+a43yqx8/mrPelFPpVmfXm9bv3xTsNSyr89ovapXHM+rDfr43u3yGeX3rTfQCHEQbZhVddD7eH7q8+2DOl3eE97nOBerj+oVkm27D2L1b69GYvk7QPOjSNTtqdflvmkw6hiWx1Qt+3uszHXu43XTnkB9TkQ0ADEYJ4oSn3zyCSorK/H73/8ejzzyCJ599lmVuiKDdF8XXXSRCs5lOktjYyP27t2rAvOWlpbeDcyP1mE/piFplF6WZOBW/V2dLrEG6aJIBpiJ5Teiwp1GsQtFLTlewZvcJmNPjmebe4CV5Xv1Wgs/9de/+wGyf3Vcl32KiuklyPAN9vfciQVYr7d5EYvEsWSw5ykTbYq37leFXD3q7653ml7lRzBt2Fl+i3cbmlcgMZw+CIHqezmybdZ5743Ie9wSGNu2eyKWPnIcdZk3e9JgQh0dt3su2LYntD4nIhqIGIwTRYmf/OQneO6557B69WrceuutaG5uxn/8x3/gN7/5DV588UW8++67aGtr01t7xMbGqkmms3z44Yeora3VayLNCJx2Ts/HUmswjrtQcbflCoWja7FyD7DoXiMYM4hA757HkLKnUI+KVqHMd5tRD2BTpr9IzKd+YVLaGq82pE/NEcH3q14j0zKg3JQ2US+kIWu6/HkXlrvLJiJzmjheS50xEuvnjUZ6mn0wGlQbpr+IHZY25MvzM48XUh/4MEeu3ZMOblXfT0PRPZZ2Jy9VbzrMC8yDanfY/D0XArQnxD4nIhqIGIwTRZmEhAT89V//NVasWIFly5bh9ttvV6kor7zyigrUN2/ejAMHDuDs2bN6D4PMK5fkCPuhQ4fUfI95BX13Yn/mW3D5BMaIvx6JelY5+gF2IgdZvjnlKsVlL2pkML7vVWzwt40/vvVrXqkPz/xOl1qMSfQK6hJHiyDXp65Jo2/Uc4IIhJdP34u8x0V9QaZKdNeGlNFmIG5Qx2v+wEhFCaUPfHW5gFMH9Krv3zHOwWzX0luQ1+zC/iMH1a5St30XLr/PhQDtCaPPiYgGGgbjRFHqXMd5DL08Fl+7/ev4xS9+gQcffBAzZ87E8ePHsXXrVpXGsmXLFnX3lVOnTqG+vh5NTU1qfvz48bqWHvIJ+jyjvE6qQu5S39SHu/S6nkm/20iXqBgj7xojAkTf1Be33mtDz91lSQ/yTMZj50S7A7UnlD4nIhqYGIwTRYmOzk58duYLNJ5oxv6Wevy5uRaNnzXj2MnPcOZcK8aMGYOMjAzk5eXhb//2bzFjxgx8/vnn2LFjh5pkkC6Xb775Zl2jQ0ZdjxR40iLcrCkJapsDqLVeyCfUHQkiX1qPKFdY8pnrjxzQc5GhAsRf/dqSVuMjEm3oSR/Yset7Uw/abR1Zl4JqZ3ftsei2z4mIBigG40QOOnz4sAqi5S0L97V8gI8+O4xPTp1A6/k2tHd0oENM7R3t+Lz1JAafO4aLjv4XLmouwbWxRzFnzhzk5uaqXPPRo0erWyKOHTtWTY5SqQfAhmc8Fw2qO3U8Z8k3HzUP2fF7kfecJTVh3xJk7AniTqu+Ad7RtVjQw4seFVFPbpUl4FQpFjYi0Yae9IEdu75/Xh8jiHZ7pdIoRm79zvLVnjqDfqy6aU8ofU5ENEAxGCdy0NKlP8PTxf+i0k1izw3GcNdQuDo7VSDe3imndjUvR8djj/wnhpz8AINPfYgRzWUYfvi/VB3XXHONSkuRF3FGCznKWZd5ABmWPOHSadZ8c3nnjrf0lwjpbaq/a9zJozsiwJMXOW54Ru/3HLDp3hy9smf2l9+q2yumZw6g6FdbfC5W1SLShh70QQCy79UdUsw6Zd+PnmeMhAfTbn2Bpdpf53FPSlvvKZNTCO0M2B4h6D4nIhqg+KU/RA66acpUxF5+FRKmpWDk5RfhujFXIWniOAy9dATOD+rEl+fPqIB8dMwnuHXQnwERoLvEhI529fPstX+N9iu/ru6gIr8USPrud7+rfvZH8sJClc/ML5whIqILBEfGiRwUM2iwmAbhfEcnDn96EqfaYzD0sjiMGHoRhp4dhMvODMHVgy/FVUOGoaNzEFwd5+Fq19P5cxjSVK5rGggOonzvXqRM84yaEhERDXQMxokcpILxGBFkd3bgru99Gw/e+yMkTp6I0ePHY/z11yMhKQmHDx3H1ndasbN1Hj4c8k18MWSSCMbPiekscLoFMaebdG39ifxWR2sesRwVvw95zdOQ/bVouGMLERFR32AwTuQgOSoeExODCaOvxnfn3I7hQ4di+ODBGCTKIDPIhgzBN78zG5+cPIt/+f0WPP1qLR594UN0nj+rRsZd4mfM+dO6tv5EXhRozSm/Sn9jJ/OFiYjowsJgnMhBgwYNlhE5Uqd+Fe1nOzBMBN+xw4ZhqAzI5QadnTjXfh4/+WEmRHiOQ0c/RePBWhWEuyf9ZT/9zaS0LT73nrZ+YycREdGFgcE4kYOMNJUYXHLZCLS3tqOzrRMXDR+BIXJUvKMDg0QE3jFcBNtxQ5F6S7I78JZpKnJ0XE6IvVqVEflTXV2t50Lz7rvv4uc//znmzZunJjkvv2CKiIi6Cve1VmIwTuQg4wLOGJxpa8PxthM41XYaX3z2Od58aw927XoHJ89+IW95hEGnXJidMsO4k4rgOmeMineOuR2u2JGqjCgSjhw5glWrVuGRRx7B63UnsXdMDh69Q7zp+3wvHnjgAbVObkN0IehJgEUULAbjRA6KGSx+BWPEJALuVhGQnzj9JY4cP4amo5+i4eMj+LCmUd1VxdXeiYsvuRjjRhuj4B0J30dH8gPonJqnlol6So58L168GPfccw82v/429o/+PnZf+1Mcu/gGzExsx2/vasXPMtuwb9cf1DZyW7kPERH1DINxIgeZaSpn286itbUVZ86cUTniw4cNwZEjx9B87FOcF+tkvvjZs2cxPn602q9z8o/gGjdHzfeOE8jNrcFqrwFQf2V+HGnBrGC26xFrW4JsFwW0b98+bPnyK9g97l788bqf4fCl04yLiFVmlPgp5ud+9Tyeu+8UfnvnaaSMqVH7WFU+uwcxuV2nWZVteovIkcfK9Rq09PM8qG5AzLMnevCc7OPnlmyv7LNft3i+lZXC49uXfdC38jnZ5bne4+dgAP3itba3f4f6+He0lzAYJ3KQeQHnwY+acE4E2zIYF9E5Lo4djqEXjcCgwYPQ0dmpflHl93PFivKoN3oMdhQnYanxviFEA+OFtb+qv+rb+Cz2Kyr29g3EFflTTMnj2nFXStcAO/2n0+EqllMCFiEWRY8ZyzvSR+gtIif95jhseEcEOaYjbdiPVpTu9bSrvqVNvGmI7eFzsq+I5/7TJ7DoftFnj44J4177/N3x8O3LnvZtcORzcmdLq14yVIrn6CJR3ivPQb7WBin6z5XBOJGDzJHx/Qdq1R1U5Oj3qVOnMOrqKzB/9m2Y+bWb8OXJkzj+2Wdq5Ly/3jmF+gkVbOufZiBuPuV0IN5l3imjY5HycZt7lLN+7wlMyYoH3MFQG8p3A9nTIv9GoPfEIimq3zD0J7592Qd9K5+Tb52wfH/CCZS9FYesqXqRyAaDcSIHmfcZ//yLL7HvvQ9wrq1Nfa39+fZ2dLg6MTw2FpdffDE6zp/H+XPn8Mknx9V+n58xvvreOXqkoVJ/9OuVimAdhQi0XRtW/9ook1Nutdy2ARvQirwVokx+tCt4pT7osmB1v69uX7X8uNfYzvc8cp+tEeUNxh9Y9bGwp06vNAnLulmVLV36wFqP/3Z1bYusv75S7mfW23U0OpKuPPOhEWRbA3Ez8DaDbz2/r2mIsRwUfW7ukSnrsm//6HV+nzMWo+OQLbYtV3UYgXeSCLynuIOhVtQcHoHJKgDrejzb+r0eR5/j2jz+3ikz1mMJch/1GPs+343VBrmP57nvPq7X8fRzUOj6/PHe31NmaYfXsjFv/9w2jxWozZpNn7iP193jKHVTh1c7rfzuJ/ex9qX8XfTTt71BPifHigDcbL94Tdtwa5y+Zau1/wU//R3c88jKuo2e78vXWj/noFjK7fvb5/z8nYvf12UhQP3B/W4IftsexPO9lzAYJ3JQYsJ4DBs2TN0lZfNr/4sY8V+7CLzlJNNWPvnkE7X+ohEjMEQE7fUNH6n9Go8fVj+dJV7cWuKMtIT747CzrLnrH0vFZrvqZuRdm6DTGqajeGociq3pDT+NU3t7pT681WJ58e5ecPuK9m0GNsntHosHyhos27Vi/xjZxgTxB1W8qK9oxhT5Ubfedv/Tlj8elnWbxPIGtb/JWk+gdlnaIvpqw9N7sAC6jwL2cWQMaRd/2LoE4vqnpANx6XSbvJIhUrz7R/VDt88tEWhfKwJu1XfiJ+KQKYKhrFvbUCvLvAIhX3b1B3oc7R9/r5QZcdz9Y+FOl5Ej9pCpMl2e72q15v3cN9J65PFOIFun+rjuB1bqwKPr88f/705gvs9tP8cK2GbJvk8MwTyO3dfh/dww2e3n25dj/PRtbxmBzBmx2N9iPE7uFJUu/Pd3UM+jgGz6u1dea22eMz6PS9fXwmBZXgvFY+t5XQ5cf3C/GzZt7/b53nsYjBM5aO2qx7Hyl0uQ+Z1UXHnZxdj00n/h4tiLjJFwMcnUlKNHjyLu8stxsKERJ058rvZr/MQ+GJepLh0dHSJm0gFUrxEvbhn6D414cV8EHQR1YbOd+ki3ofuRKvPCKzW6EaKg9hXtW6TzSEePwfJbzQBPivWkOaicZMtHztZt5bqx8cjX6yaJAGCRMatZ6pFs22Vpi+ory34B+7jnZs6ciZ9f8zw6f/gzdGaL6Ufm9BAGlfwzBr2wSkzyp5j+7Z+R+4dZap/I8Okf2Q9BPLfcwYsMvK8dofotcYwRwLjzxf2yqT/Q4xjo8bekzFS+04bs+aLu3SfEsiVVJtjnu0nnwKvRPPlcefqEJx+5J78Tbr7PbT/H6q7NgfpECeJxDKIO7+eG1u1+zpg0zfPY135skxoTqL+7ex4FZNPfvfFaa3cOsjzga2GwLK+FobzWBnMOgfo/lN/RCGIwTuSgyy67DCkioFn6QC6eKlyJvNx70HLsqPG1+GKSY48d7e3Y9+ca/O7f/9N9n/FAI+Off/65Csh7FoyLPyJj9axJvYCZH/tHgHiB3aFGNowXT78fCcqPEp8GKtRIxU0o8m1TIGHtK/+A6tne0pNz6kUysN7y5yFoOKr/LFhGwdEp580y4NLzRzC27d0IBuNh0sFLpQi8zRFIFQy1nOjbfHF3yswJlH0ch0wRCGWLP/Z1YrlUBIyZ8ncmmOd7F3H6eaInOarXa88fP8cKq80XOPO5IN4guh97v/z1dxDPo3D02mutn3PoFUG+Lod0DtH1fHcuGN+6BiPHZetpDap08cCyG3nj8rGuQS9a9fX5N5Qhza4tFBVkYD59+s34yZ13IjU1FdeOHYuTX3yB8soteGr9M2htPeO+gHN59oO45JJLMFQE7KZRo0YhOTlZ/bzoooswaFBPfr2NFIC8DZ7bgFVWNGOn7cf+4ZuUnoS6LM9Hu16OtGLn2FgkqnnxBymU7Jyg97XcgUNtZxltsxo9AlPEH0p3Pqh44V9pXpwl1x1uRqFeV1/ZEmBUpgfn1IvS0tKQkJCAVa+KANYaiOsA3Przq19uVtvKfYIj39xZRi3lSLae7REVvDQjowyeEUj5WLzVjDx3vngIAj2OgR5/lZ4AlIrfl/0z4jBJLbehrKIVUMseAZ/vVvp4xkf/FkE/f0Loc7tjabZtDtgnQQq3jkgcu1cYz4W8p5u7PPZutv0d/PMoHBF9rbU7B1ke1Gthd89Pm9flQPUHew62/W8I+nc0gpwJxmVguBB4oakUx+S0bTzqt+p1QQsQ6Ea7iJx/iBKyUNVUiMUJcqEf990FQgbmU6ZMwQ9+8AP8/a9+jsJ/+Hukz/0Wxo4xvm3zyy+/VMF2XFwcRo4cqYL3GTNmYPz48Wp9JKT/9CYUiUAnMdf4KC/j43jURXLkw/1x4h4klo3AcpXLKV5wb9UfH8oLbabGe9qwoRVTQhkFDHrfWExp0W1RuYi+uammOBSrvFSjzTEq59DcVqy7P07leMt1C8Sy7UezPTmnXrZs2TIcPX0p/rlcp3eYQbklEJ/y5SsYPfyU2jZ4I7B0vqd/Yt5BmB9d+5LBimjrWOuooXwOiR9hvXEM9DgGevzFH3A5Ii/++Juj8XJ5/1ttntF5v8/3QIzjoew9936Bfyd8fndC6nObY3Xb5sB9Epxw64jEsXuHfOxTxOuK/SczNv0tdPs8CkevvNbanYMoD+q1sLvnp93rcoD6g/7dsGl7yL+jkRPj6v3E0q7kqPCT4/FmeRZUbBgWGVCWYvI2M8CMRjZtjMj590R/6DvyRwbhBw8exLRp03QJ9cwJ5Oa2IOmxCN//90gLZq1oxfJi54MD+XXeU6cGP1won1/ymzWT4z/HsnmncfFwl8oRH9LZiq+KQPy6IR/jn/7pnzBx4kS9B9HAFervD0VCL70u97KePFecGRmfMxM5+0pwX3GzLpCasS4zG3nWEWIZtGaWoUGvM9M68rbKYLIQJWhEwWxRtmy3sb1KxfBN/dCjwFs96+QxGorz3fWlebXDo2qZWZeYzGOY9RV70ky89re0Ia3Y5jMSv+ev+T0HybcPZJlui3uE27pszOctk+cp6zHXyZ/Wviuz7XeKPnLEnIF49FMpPebHpf2MDLJlsL2v+Qo88Pxl2HdoCK489xFSPvtXBuJERL3AoZzxGShqKkLW5jxLYBmPxQ+loqTSDHpFMFy5HTkPZSFh68souCHfSOkQU9EcuX8+cjABBdtE2aoZYmsRZM7egSy5LLfbCDzhDnZF4PkksF6Vi2MszMZ9eEhvl4rqlS/7zdlOW6XrkscqLbUEvaK+2pl+9pdtKEHSRmO/9dghgl5//J2/ZHcOMhDPQ9n8It0e2QfGHoE1omayPM8l8GR2+vZdlm2/E1GwvO9Pm/FWHCp68Zv+QhHOSI0Mtjdt2oRRE6bikdJLMePEv+HWm8arMgbiRERd9eQTFOcu4JTBd7kIBrfloEYExyoglSPGpW+4A9uK93OwRAadCeMxtbTQdgRbaTiMGnO0V44eL9yO6lpzZFoEnk/plBB5DLGcNTderTGWm1DvL3/afZGlHEm2EvU9IN8ACNb9ZRuSdZuFhNxssc6On/O3O4eGXSjbl4qHc3Wbg2Y5z0Ds+p1owItDcUS+onoElj5quTI/CtJTekpeICxHwX/2s5+pSc7LMqILCVNUnBCp1+X+w8FgXEvIwvrlE/TI7AwsWd6kRoMbiktRM/8WI4BWFx/KkeYnfUaSfaV6LoqUkxoxD5PXRZZFKEjW5ZHmdf5SBM8haDb9TkQXPHnHlODvmkJERKFyJhjfWmZJ+WjGa5sbMXWycdlrwtxZwOaXsWYzuozqJuQW4k0RuNYc9DNCnjAWSdhuSU3poYZDqE4eb3zMrEamVWlgsg37SrBGv1mQga3fNBW787c7h4RbkJXs79zGYnJyI2rNura+YZMW071A/U5EREREvcOhCzjHotZMxRiXp/LBq8wUjIQsPHzDdpTckO2504c7XSQbt60cp9M1ZiAj27wI0RhVL9qWA6w08rDV5L7oMgxz7kCBCG1vk/U8eAhJQY2MizbonHR5/Pswy3+aiu35252DTGnJR5Kl3CvPXh9vZCUCpMVY+fad4K/fiYiIopC8cwXRQOHMrQ27Ie9iUpEe7EWKFCnsdyIi6g94y0EaSJzPGffVUIYneAFh32O/ExEREfW5KArG9X205a39zDufUB9gv5M/8ksXPLfqk1MuPxV2iHwsarDa/NroYJjfJPfrFtTroqgivxQp1HOKBtHQbpvHtvJZ399RP88bua/8psGwzyOM52JUsGt3lJ1Pnzy/rOfcXx/PgSeKgnF9qz/3V7ZT32C/k51YFD2mb9Wnvn64AZV6DUUz8Qf26RNYdL943KLkXuddjB6DHf3x1mWOt9v+sU2/WfyOviO/6ls70ob9aEXp3jZdANS3tCFlTGz/7f9+I8wgt0ePCwPr/iz60lSIKPpMjcMitKGWL/T9RCySGGgNUDaP7ehYpHzc5h4tr997AlOy4oGWVl3ShvLdQPa0EXqZiKIFg3Ei6l71CWwYG4dMFQT4jsBYl/V8pf4oXUyzKj0jcx56u2r5sazvdsa63GdrRLkejVcf3xrbycnr43jLulmVLV3aYq1HfpRv1qE+rle6tkXWX18p9zPrNdvm/U2bXVN3QqnLrj2C1zn59J9XX/h+WiGP34ANaEXeCsu+tv3np6/dup5L8I+RLDP6yquPZJqESq/QdZvPoW7a5/+5FuixCHRswW8f+p6Tv/pDbLff34PunkOC33plnX4eW9PoOGSLbcp138jAO0kE3lPeOqHPrxU1h0dgcpff4UBtFSxt6XJMm/P3Tpnx02fquR5EP/S1Hp2Pyftxcv9e29TtLdjHxbfv/B/T9vUlCN3vq9vX717Do5S8mwoRkbfPXIsWve2COT3zmS6X5Lr3XEUtetFrWe9nbr/3oNj/oKvCWLLQ2z3W7KqTiy3NrhSfOlIqWuWCe3nRXr3oZ1tzXV3Fe+J4dvVYyXU+bTbbotps2c96DnLeqy98hVCXl67tsT8nc14Q9XU9P59tfOoL3NdWxrrgHyM/7fLpr4pnzHZYtzfqsm+fpV7rsk/dXQR1bMHdh0Y73Ofkt37rvsb2gfrVvb+sK8TnUHD94c3rHPXjVvGM3t7ruNZ6ArTVpy3+fr/8ttN6LDGf8th77n6Vdfh7boRq717zwMHQ5+h3itD5eJF1mfVKAer2Yt1Pt9nf4+K373yPaeVbr795O3bbyHLRvv72Gh6lODJORDZ0zvhj8Uhxj64FQ+yXEWfMBkxvEdst0nmvo8dg+a2tqHFvF+v5OF3lvsYhy7yLmXVbuW5sPPL1uknpY8TxrCz1SObFb2oUycrSFtVmy37Wc5CpAG81dDPKEmRdkr/2BDonnQesRr/kfk+fwE53GoKNQP2n+PSRl1AeIz/tkufrfu6cQNnHnvNy67Z9Nrp7LOyOHbAPLefUXf1B9Kvf34Me12vPnTcuP8m6doR63BLHQOWNu/PF/bJpq2xLwOeiTTstKTOV77Qhe76oe/cJsWxJlQnqdymSxDma18C4p4TInU8gYT+mYT6HTLavd0EIat9QXh9szj/Qc0zxeX3q6Wt4lGIwTkSBiRfOTVltWNmrfzTFC+XHera3yI9CnwYq1B/hm1BkfOlvaERf7BD7b4LxB8H/R81BCrs9cXofPf1U/7Hudd09Rv7aFYd8/dypr2zB/hlxxh/LSOj2sQh07CD6MJKPtVVv1SvpoLFSBN6LRGAuTZomfrac6Nt8cXfKjHwTFIdMEQxlizdAdWK5VPS9SnfrzX6ItGDOpy8F03c9eb0La99+8hoepRiME1G35GjFlLIGnccXi6SxlhEQOQqnZ0NjudOD/KN22DJyYjV6BKbIkU3zD454QV75lt5WrjvcjEK9TgZdtm050oqdY2ORqObl8VRpWCalJ6EuKxb7RdATNrv2BDon3RchvTEK1H/dCu0x8tcuFQzuFuezewSWp/sJBgO2r/vnWqDHwu+xQ+xD2/p71K+9VK8KGpuRUQbPRZ6yvreakefOFw+B3Leb56L/do5A5gygdIP5Jkgut6GsohXweUMWkd+lSIjQ+fjVk8c0gIB915PXu6D37b+v4dGGwTgRBUGOMgJ54o9RvfhDtHR+HDY8rT/mfwc+HysGKxZTWoyRnZgVzZhyfwLS9RpvcSh+LB77zeOtOIHsx8xtxTp120Vj3QKxbNuWqfEoEoFKoqxjQyumhDOq4v6IdA8Sy2yCy2DZtifQORl9gbL33O3o/sKsQP3XndAeI7/t0qOKG66NC+PxDfBcC+ax8HvsIPuw2/rD7NfeqleRQWIs4L7YWhJBz63ix612/R+IaEs3z0W7dqo3QiJYMkfj5fL+t9o8o/OR/F2KiB6ejxfZ59aLKXvymPrht+98jtmT17ug9+2Hr+FRKiq/Dp+IBjp59XsLkh6L8L2Oj7Rg1opWLC/uwR860nrpMSKKAH4dvtP4Gh5JHBknogGjsqLZ8zEmERH1KxfqaziDcSLqx7zvt5vxVhwqovVbJ4koYjgqPlDwNVxyKE1lN/LGFaIkOx/HVs3QZZIsL8XkbU5+NXtftcHuOLL8DWQ0LUGaLiEiIiKigcnBkfEJmPp+IfK26sWgyWA1H+sa9OIFqy/7gX1ORERE1BscTVPJeigHNU+WgTEeEREREV2InM0ZT8jCwzeU4L7iZl3go6EMaeOyMVJNa1ClRmgLUYJGFMwWZct2o2pZtmV03WcEV+4vtnHPu+vquk/esnx9DCu5zjiOL3lcsy7Pen384jXudWnWc7O0Ia04mBtk2tUny737QenSX5Lv+QXfRrs+JyIiIqLIcPwCzrRV+Uha+aSfFAgRBM7egaxtpTjWJKaNwBPFY1HUlI8cTECBLF81A2npqSip1AHi1jdQkwyUbTGCy4YtO4DJ8kaUsq4SJG3UdW3LQc1Ca9pFI2omPyTWWfO0m7EusxCQ+3jltRvSVum6ZHtKS73qKqidqduciuqVL3uCYksb1mOHCHCD4a++GV36wX9/mUG27/kFamP3fU5EREREkREFd1MRgeXGcShY6zPi2nAYNTJolKOxcpR24XZU1/oZTU4Yj6nvH1apLlWVTch6aBaweZdYbsZrm4GsufG6rlRkzDF2USPy2Y2odQfQE4ztLMoezEPZ/CIUmfv42mqOLMtRYysRtD6gA9Y5M0UQ24R6eRzZhuQcLNH1JeRmi3XBsKnPV8D+8j2/AG0Mps+JiIiIKCKiIBgX5tyBAr8Xc6biBTlCa07+RmUTbkEWduC1ht2oeH8W5s2Ry4dEcLkLZRDLYd0RpVFME+wDUZnKsRC6bUUoSNbljguiv7oViTqIiIiIKBjREYwjHoufkqkjllHmhLFIwnZLqoWdeMybL0eyS1Ez/xYkqOUmVKw9BKhlQddVYQb7Iph+otQyUt7FBGQ9VYgXUOidT21qOITq5PHGfTBl0L9PlQYm27CvBGt0GxqKS4NMUwlS0P0VQCTqICIiIqKgRUkwLiRkYf3yCXpBmoGibTnAyjydDiImdfHgDGRk61QKfTFhwtxZgAiIzVQMuVxT2mRJzTDqqlmo61F50d3fxzttVRGyNovjZ/rc8UWO5ItQ+jZZ14OHkBTUyLhMx0lFiW7DfZgVZJqKHd9+sOuvUATf50RERETUcw596Q8REREREUXPyDgRERER0QWGwTgRERERkUMYjBMREREROYTBOBERERGRQxiME1HfOLoWs5ZejZilVyE3mNuBBqHyeVHf88b3xxIREfVHvJsKEflVXzUXieXv6CWPlMxd2JE2US8Fqwq5S3OAe4+jOIJfkiWD8QyUwHV3dzcq9fB7XvG/Rt0jDxjfHUBERNSHODJORPZkkLr6U7jc04uYUn4rYpYuQaXeJChH67Af05A0Si/3Ehlox/x2Ler1si2v89qFIqxAYqjnREREFAEMxokoBGkoXv0WiuJLkDFg0kMmYuk9jyEFJcF9my4REVEEMU2FqI89/k+r9Fzf+NXPl+m50Kh0jr1Z/tM39i1BzDMHUPSrLViqR7u90z9udq/rmhZyFypWr0G6zCF/fAV2wnwJ0uVq/iBW//ZW1KR7p7Wouo7ku9NSPGkqE9X2ec2WlzOb1BP/5+WdRuPeJv0DJD7zO7He07Yu5zP9xS5pMqpde3RbRDsqppUhw3JM2/oD9onnfOtGF3raoI/v3S7v/VS+vrVepuUQEUUNjowTDRC3z0rx+7NXjLoeKdiLmqPGogwSVXBppn7ceyPyHjfSPialbYHrV78W28sAXa7XQe27HyD7V8d1qsinqJjek9H2iVj6yHHUZd7sSUEJJdj0l0bT/CgSq7+r22e0WZ1n+Y0i0DXarFJcWnK8LiI1AvEczzb3ACvL9+q1Fn7qD6pP9tyJBVivt3kRi8Sx5EWxnjLRJq9PLsQbDRGITxFvNNz1TtOriIjIcQzGiRyw8Cc5EZ8mJXyly89eMyoRU/SsHHVduWcaiu6xBL/JS1VAGCjtY1LaGveoupQ+NUcEmq86kLdtBKs7p+d7tUeNLltHvNV5AovutYw4mykuewqxWr0xqUKZ7zajHsCmTH/Rr0/9QlB9It5sbHJfQJuGrOny511Y7i6biMxp4ngtdUbuvJ83GulpHBUnIooWDMaJHHD11Vf3ynTVVVe5pyuvvFIfrRdYA7yjH2An3kHe41epEVpjukWljOw/ctDY3oZMrXDvo9I1+ogclXa39U7sz3yr6x1Z4q9Hop5V1HnmIMv3bjDqjYn+lGDfq9jgbxt/fOvXuu2TMYlegXTiaBF4+9Q1afSNek4QbwaWT99rPD7BXNxKRER9isE4kQOOHz/eZZKGPXow6MmX9fKPXr8URAWmN2Kye7RV5igbKRDWyf4WiDJH2ze15S69rg+YqSzdtrMv9V6fpN9tpKhUjJF3jRFB+YC5+JaIqP9zKBjfjbxx+VjXoBfd7MpDEYk6nBSg/VvXYOS4bD2tEX+6+0p/79PoVPZKhXuyGnnJYFx98WDExQ7G5SMG4ZJhg3DR0EEYMSQGQwfHQPxz27hxo3t67rnn3NOmTZt6MSAXQeMzJUjJXGqkYqj88RDvRKJHkCssed31Rw7oOQ/fkfW6I35yr/uK3XlaPyVQ2xxArc6lNwXV7iD7pCdUUC7z991pNURE5DSOjPcXDWVIWwi80FSKY3LaNh71W/U66peyvpfhnqw6RQzd0Sl/uvRPPS9/igX507Rw4ULcc8897mnBggVquvvuu/UWESbvyrE0Bxuml3hGk1UaBLDhGet9ug9i9fMBUiJ8A1tR7wKvixyNvOed5as9de5b4rlDiQ2VntH8Aer0ckTZnedzlnzzUfOQHb8Xec9Zzj2Idivd9kmYRD25VZY3NepTDSIiihYMxvuLhkOoTh7vyRVNyMLiOXqeBpRgA3HJ34i4nJ5//nm9RQ955VaL6fEy424fPvnVcsRV3fnDve0tKB09z/4iQX1R44Zn9PbPAZvuzdErDZPS1ht3BTHrrP6ucbeUQPSFo2qfXsiPludZl3nA+zynWfPN5V1d3tJfIhRCu6Ug+iRc+9UXNel6fW5JSUREznLoPuMy7aEUk7cVYnGCLlK8y6uWZePHpXpVdj6OrZohZoxtkA2UlI7DC01LkCZHjWeXoFqsnbo8B0krd6g6Jq3NRkV6KYpU0OpzTLnP2rGoEnWGcxwg1ShT8x6B6pq8fBwKVm5Xq6YuL0JVbryaV23x0/6ufVOIGut+Jq92ATkbbc7ZazkSbaJwyPuMy7udWNNT5Oi4vABT5oLL1JRgAvGzj3keDPPX2PrrLOeffGpd2PcZp8hx31ec9/YmIiIfDo6MN6Jgtpn/bE6FKNFrpbRVOiWjKR85paWWnOVG1Ex+SJTLYFgElSJoTBIBqNx2PXa460hLT0VJ5W5jYesbqEkGyrY0q8WGLTuAyWPVfPDH2YGsbXrbjcATxUZdVoHqKqidqfdNRfXKl3XOt337vc1AUVMRsjbnqb7Kc6eoeO9/bFsOahYGm9/d0zZRT9ilqXQXiF8xYjDyZl2JoUOHYtiwYWoaPny4mk6fPo29e/fipZde0luT8w6iXDwmKdMCfFJAREQXLAeD8QkoMANb9yQCWL1WcV+w6B2ky32z5pojuIdFkJ2DJTplIyE321NHwnhMff8wZFxaVdmErIdmAZt3ieVmvLZZBENmHcEex/oGYuF2VNceNtZZBair4AE5Si7MmSna2IR62bBA7e8iHovLRT+pgFsH5KpdqcgwU1YSsvBwdiNqgwrGI9EmirRAgXhW0qX48JGJ+OuJtVi84QFMyUvGZXddoSY5v/zlv0fHFR0qb3zw4MF6L+o78ptDrTnlclT8PuQ1T0P216Lhji1ERBRtojdnXKZJuC9YLEJBMPft9ZVwC7KwA6817EbF+7Mwb45cPiQCzl0og1g201WCPo5MTTHfOIhJpaBYRKLNwRAB9/rlEzyj/tQv2d1NxS4Qv2f65Xjury/B4qd/gvTfZmJjyyYcuL4WJzPO4GT6GRyYXIuNzZuQ/o+ZuKvox2htb0XylJv03tQ35IWn1pzyq/Q3djJHm4iI/IviYNxywaIMnu1um5YwFkn7SrBGp200FJdaRqTjMW++CHoeLEXN/FuQoJabULH2EKCWhVCOg+1+U1Pcgq3LKmD7LbaWWVJP5Mh+I6bKNBvdrgozbUW8IXii1BwpH4vJyZZR8q1v+K/bV7Btoh6xTVPxE4jLEfGijIuQsfK7KPt4M05/qw1nE8+j87JOQG4n97m0E2cnnsfpb7Si7NBmte3t35xpVEB9Rn39v3mfcDVZv7GTiIjIW/QG43PuQIEIAW+TKR8PHkKS7SjzDBRtTEXJQiN95D7M8kqpSJg7CxBBsZluIpdrSps86SehHGebqHmlkbOtpmU+I9NB12UVuP1uc8ai1p1jn4eCG/L1xZZGu2Tailqn8trNC0vjsfghT90jKxFkukmQbaJe4S9HfOMPxuD+4sXYe7YardPPwjVEb6ADcUXPuwa70Pq1Nuw9U632ISIioujl0N1UiC5c3d1NxZe8WFPmiMvUFDkiHigQh/nrLH7EnI/BxTtiUfmLcqTemGqUExERUVSJ3pFxogHOLk3F14Lpl+N3fyzB+a+0dxuIT73ya/jwjnr1U46Qnx/XrvYlIiKi6MRgnCjKTR0zHH86sB3nR3UYBQEC8f+btxVXDLvcvf781e1q3/C1YfWv9yAmV0+/btFfpHMCubk1WH1ELUShINtX3eBzXqFyoB+OtGBWXxyzx33TWyx93ld90UUPHnfH2kxE0YrBOFE/cOiTQ+6LNb85cjamxn3NbyAufatiDqo/fVet67y4U+0bFhU0vIea+dPhKtbTIqDc/Hapfk8EVE+fwKL7xXk9OiYC9wCPVGDuW4/P8ugx2FGchKWj9XKviHTf9JI+6YsI649tJqJexWCcKIqc+/VE9c2a5tRWcJ1eI+jge2PKv+L/0rbogNw+EFdT2NqwekMzpohgrHiqLpJEILHUutzvxSKJQZEN9g0RUV9gME4URXy/zt40/prxGPSl8ev6V6/foX7+319swT2T7g4YiA86OUjtG7IjJ1B6OA5Z3QXeavTcSGGZVdmmC4HKZ3Vai5yePaFL9QhvpU5/8NnHu64W79Fgy7qY3AavL9Vxs2mL0mV/2ZYGbEAr8lZ4tg/YbruRasW7Ps++Ju90n1zz04Vu2hXzbIOfeq3H1/Mh96lNexTvNrjr82qrdR+jDbnP1ohy38dGt6/as6/cr75Sbmss27XXqy6v87A+tta+sHv8fIR1HoJtG4Qu7Tb616tfZdqPSvnxbnPwzw0p0ONGRP2WvJsKEfWdf/jtEyFNR44edd23/n7X8EcvcmHTUBeeG+qa+t/TXSfOnlD1yZ9T/2u6C/86xIV/EdMGPRUPcQ3/1UVq35C1NLtSHmt21enFrj5zLVr0tgvmNnsPurDooKtCrbOS273nKmox58U+z3ym1njvY6xbtFctuOoq3hPrrPuZ84LYL6WiVS+Ywtnfp9yLdZ3vdnbrAtQnz9U8bzef7W3bFWhZzofRp37bY+XvmJ661PPDpw1dHxNJt8/reWLZtkt7Lcf06o8gH1u3QOXhn0dIzy+fPq54xtzfun2rq+gxf8cMrk4iGhg4Mk7Ux37182UhTaNGjsRd38jB0I+GIOa8qMDlQvVn7+JblXPw0alG/6kp4mdMewyGfjxE7RuWw62o07P+xaJokc4nnhqHRWhDrTnaZ178lytHWK3EPhlxxqx1nyNt2D82Hvl6JH5S+hixTpPrzJFhWefTJ7CzpVWv1Hq6v8m23T00OhYpbzX4jAKH0K6AwuhTf+0JRLXV8knJ6DFYfmsratyju7HInjZCz/vyfZ5YtvVtr7/+CHQevrp7/MI9j0BtsGu3PLe3TugR7RMo+9izv5v+BGp5us8x7eoM9XEjon6BwThRPyDvE/69qd/FiP3DjQIRbMsA/Lp/n+Q3EJdGvD9c7RPWPcZHxyF7rAggwvkYXH68/jRQoS76vAlFY3V5j8Tp+vT0Ux18Bi2I/Xul3Zq6aG86NsEIFj3pBT09rzDZtsdpPeiP3nz8uuWv3XHIz2rDShE411e2YP+MuBAvhPVTZ9Q+bkTUEwzGifqJp3PXYVrsVMRWj1Bf6OMVfFvm5Yh47P4RmHbJVLVPeEZg6fw4bHja5w++CHhWdxcAHGnFzrGxSFTzcuRPlQY2egSmHG5Goa5bBi/ukU25DidUUGOrp/tLtu2ORdJYy+hp9YmwR80npSehLisW+1tEW4JtV7gC9Ynm1Z5AdFvdb87E82DlW0FcUxAKu/4I4jyUYJ534Z5HoDbYtVuYNE0E0LvFfrtHdB39lvSbXr/nHOC5EfTjRkT9AoNxon7i8osuR8XyV5E1Yb76Zs3hHw5TF2iagbicH944DBe/FYus6+arbeU+YZuaANdj8dgvAnL1UbmcRASS2V3gMjUeRWhGotq+FVOCGqGMQ/H9RvAvj7NALHtSEcQ60Q6UvedpR5eL83q6v2Dbbs8bE7XvO7BJkxBB3a06tcC3fnf6xB4klpmBmV27fOsJUG9AAfrEb3sCMdrqfi6sOIHsxxKQrtdGhn1/2D+2FkE978I9j0BtsGu3IINtEVRvuDbO5hjiufVoAqZY9jXe/NrUGfLjRkT9Ab8On6gf2n5gu/pmTfmFPuZ9xOVdU26/MVXliPf7r7+XKQcrWrG8ONIB3wWMfUpEFJUYjBNR1JG3qMv4OB510fyFM/0M+5SIKDoxGCeiKCDvn/we8tx5vvLiNY7g9gz7lIioP3AmGG8oQ9rsEpjX0CjJOXizPAsJepGIiIiIaKBz9gJOGYA3leLYxlRgXwluW7ZbryAiIiIiGvjCCsb3/bkBT294FWWbd+LLL8/o0h5IGI9I3iGLiIiIiKg/CDkYf/k//4Tvff9RrPjN81j0QBHuWviPPQ/IGw6plJWpk8caKSzjsjHSPa1Bldxm6xpLWTbSiptlqdJQnO+1Tk55W+UKP3X5lmWWoUFVossz8y3r85G3zFK3e+R+N/Lc21jLiYiIiIiCF3Iw/s9rfo/WtnN6CXhr1/v439e9sr+DJ1NTZDC7cDuQnY+q3Hi9QpqAgm2lONa0BGkyENfbHGsqxZvLJ6B6ZZ4RcIt1t61sxNTlRWrdC9nG3t4sdSVkoUqmxljSY+6zBPbALKzXxwAaUYJssW0RCpLFYmkp1onIvWpZoSg36xTTqhlqTyIiIiKiUIQcjB852vVLJ1qOfKbnQmTmjPsLaJNnYZ6+mrOqUgTiQk66sU3C3FkqraWkcrd7XdJEI5CfNFkG0T4sdSnmKLgM8H3dMNbrIlI1Wo94TLrBWJaMYzSiYLb3CD0RERERUShCDsa/861pes4QO2IYZs1M0kvRr2qZCMJnlwByJF2OjIchIbfQva8coZepLkREREREoQo5GP+Hx+7BX34vBZdcEotJE+Ox6re5SP5q796QMC3dCHxrDhqj0A1bdqgcczlSbo6EG+ua8drmRrXsXzPq35c/JyBrbjwaDjap0rDMWYJjTfnI0YtERERERKEKORgfec0V+Jd1eWg4sAk7Xy/CHd+/Xa/pRTLw3ZhqjEKPy3bniBfNMUapZZ64sS4PZSLQthePxQ/JwN5IMblvs1EaKjW6ri7e1LnjT2XpNUREREREwRtw38Ap76wig/WcjaUqWCciIiIiilYhj4xHt91YIwJxeWHoEgbiRERERBTlBsDIuLznt0wX0fi1+kRERETUTwy4NBUiIiIiov5igKWpEBERERH1HwzGiYiIiIgcwjQVIgeVlBhXO8hfQ88klsV/csa3zFw2VrsQe1Es5s2bh2uuvlrVQ0RERP0Lg3EiB8lg/Ec/+pFe8vD6pezyG+rCoEGD8NJLLyElJQWvb9uGjPR0XHPNNXo9ERER9RdMUyFykPleuLOzEx1y6jCmzo4O8dMydXagXfw0J7m9dOWVV+L21Nvxank5PvnkE1VGPXUQq397NWZVHdTL/lU+fzVifrsW9XqZiIgoHAzGiRxk98GUpzRG//RPBuqXX36ZGiF/5ZVXcSziAXlwgWnvM9oR83yVsXh0LWYtFctLr9LTElQaayyqkOu1zVXI3adX9QEG60REFAwG40QOMoNx/yG5YK632aC9vV0F5JdecgluuWUGXn3lFb1mYKmvug95Y0rgujvNWH4XWL76OFyrP1VTXeYBZPgE5JXPFyLpV55tXPfehQ3PRC4gT79b1P3IA5ikl+ur5noF33J9xZgVWOD4GxkiIopmDMaJHOQVZLvn7ULzruWbNm3Cv/3bv+HFF1/EH/7wB5w8fVqvGUiqUFgOFP2FEYhLk9IeQLqelyal5WMRSlBmCbTT796CpaP0gpS8BhXTY7ChWo+u94H0v3gMKF/tZ9SeiIjIwGCcyEHyDil6xs0zq1NUzEwVyzbt7R349ne+g7t+/BM9/RgLFtwjtukasEdcgBQRlZphppJYeKVsBJViYrHvVWyIz0KmNbD2dbQO+zENSYG2CYMa7bZpp+dcjRSaxPJ3gOZHkSi3Nc911ANYPt37TQIREZEVg3EiJ1mCZ3XrQnfELSJw3xSVGBmVe7a//PIrcMUVetLzfRGL17/7AbIt6R8VItjM0AF4+tQcYM+rPsF1Fcr2AIvSjZSOQPv7U3/kAFKmzXOng3QlguHnVmDn9HzvkfAudDumekbYA9lZfgsWYL13O/3mgE/E0keOoy7zZiD+16iT21vSVxJHT+vT0XgiIupfHArGdyNvXD7WNehFxV9Z5FQty8bIZbv1ElF0kDnjMn72BOGSJRBX/xesUbZ1U8VT0Bd3Kp2UtsYr6PUKwJOXoii+BCutedJqZPsx5CcbiwH396PuyF5MGT1RL5n0BZ1qxPoW1KSL4F7nk/snL+bMwQYRUBfrdnRr+ovYkeY5rkw5SWkuQ/lRXRCkSV/LQkpLHS/kJCIivy6MkfGGMjzxfipy3i/ttWA/fL37JoSimyd4lqPeMggXP8wyWaSIZZ9Rcc+cwVzui2Bc8krfeOZ3ulSaiMxp07Bz72vu4LOyuqTLyLb9/r4OorbFX/qJMRptjlpnVcvAfC5W+wuU9y0R6+7E/sy3fAJ2a0BvTNaLO1N83wCMSsQU7EVNiME4ERFRIBdEMN6wZQcw/w4smQ+UbWnWpUTOU7GzmsT/LEG4WRSj5txRubHCiyiwlHmPsPcG43aBiXuzjHQMOd17l15nUCPB5gjy0bVYuScHy90jzN3vHw5155Lpe5H3B+90EJXX/cwBFP3qU69RboN3QC+noEfNiYiIIiRKg/FmrMvMxshxxpS3VRc3lCFNl40ct0b8WZeMkeW8ZfmWMqtmvLYZyJobj4S5s4DNu+A9CG1zrKDaYN3ed4Tbuqzni9e490srlm8KZHkhStCIgtmiXKXR2LWHBiIVPJuxtiUIV8SMy71SFOpyc7XJuhz5kfGDqBFPVXeaiEw5QQ4qrLf0O3JAz2nqosW9KH33IOrfLcPO6d/13PkkmP29TMTkMeGNRsvR94yWx0TQ73NXlSDtPOJzS8JeukiUiIgubNEZjG99GQU35ONYU6maiubIQhG4zt6BrG1G2bGNwBMqoJUaUTP5IVG+BF2yRht2oQyzMC9BzCfcgizswGvugFkGvnkom1/kcyy7ctmGEiRt1G3YloOahcGmmIiAu3amsd/GVFSvfFm8cZiBoqZ8EZpMQIE8r1UzbM6dBioVPBv/vIJwNblTU+SyWmP+0Dzlbr7LPaWD5yxzxHjU9Uix3kLw6FosKN+rFzxkHvjOvatRKFZZb0kY7P5W8gLI/V6BcRVyfS/43LcEGXumWY4lb4e4133RaFj23GlJW+n+ItFJo28ULx0foE4vux39ADvHJIbfDiIiGtCiMxhPGI+ppYV69FhrOIwacwRZjhov3I7q2sN65QQ18u2PkaJyC2QsDsRj3nygYK2+kFMG6vtS8XCuz7625bINqcgwA+SELDyc3YjaoIJxEXA/IIJtac5MEd40od7ffv7OnQYsYyRbT2Y0LoNwa4649w9Nbu9bJpbdEX3PqPQOlc8NVKxe4xnZHvUANmVOU1+eo9Y/B2y6N0evtJAXcoqge4N4+5tpDV6D3d9CBrneo9QTkdSS487z9rSz6wi4+zheUze3UtRSMl9EUqXnIlHrlw75pS9ezZDbW+66InPmg72DCxERXYDEH28HHHatzXjYtfagXpQO/pdr7rWrXX/Qi9LB9Q+7rrn2B66lW+RC1/WGXa6l1/rU5SbX/UDV4T3peuzqDKH8Dz/T7evSDutyKOsMXudOA9aGDf/iam/vcLWdPaens95TmzG1+k6tba4zPtP58+ddv/2nQl3zQFLvKvrHOa6iI3qxPzny/7lSljzoqtCLREREvhwaGY/HpBsaUfBgmTt/u2ptCaqzZ3qlmSTkFuLN5RNQc7BZLIxFErZbUlOCsPUNlCTn4E2d8mFMRShI3o4KmYst01bEfJc6bcuNNqh9JXmXllJzpHwsJidbRsnlsfVsOLzOnQYs8Tso/2+ZLLNispRqstD/ZZrGtv7W9HcTsTT9xi4XZ/YHlX9YgSn3Wj5ZICIi8uFYmkraKhEUi3D1Nn2h4o/fF0GzzJmWtnoudLxt5TidLjIDRdtygJV57nXd3Te8qnI7prpTVEwyVWUCSirlvvFYXJ6PJEudxgWTduVGG2oW6uOrHHYzT13s81AqSsx1lUDgD99NM5CRbbmA0++500DlDp6NSNqYvGctRInxryudnhKhLJXoI7/KXvxG+ft2z2glU30yxGsc79BCRESBxMjhcT1PRH1sfXEx/uZv/kZ9vX1gRhTu95dVj5QPHToET6z6Z/zykZ8b5URERBT1ovTWhkQXhu7fC8sI3IjC/W6pA3E3vrcmIiLqVxiMEzmoa+wsC/RkCcLl1IVvIC7wgy4iIqL+hcE4kZN0wG38NOe9Zv2SQbe/df5LiYiIKFoxGCdykBk8m4G3OdmSQbiM1G0EWEVERERRiME4kYOCTivRQXh3WzNNhYiIqH9hME7koMCxs1gZZBBuYjBORETUvzAYJ3KQETzrSc6bwbeajDUhkTsRERFRv8FgnMhBcsxbhs9m4N3TUJqhOBERUf/CYJzISXokW35hT08niWkqRERE/Qu/gZPIQUWr16gAWk3yP/nrKP95lekg20+Zu1zUZS4/tuJRo3IiIiKKegzGiYiIiIgcwjQVIiIiIiKHMBgnIiIiInKI48F41bJsjFy2Wy9R6HYjb1w+1jXoRSIiIiLqN5wNxhvK8MT7qch5v5TBJBERERFdcBwNxhu27ADm34El84GyLc26lIiIiIjowuBgMN6M1zYDWXPjkTB3FrB5FzyD4zr1YmsZ0sZlY6SY0orNYD3QOqHBUz5y3BpU6WKVDmOWu9NijLryluW7tw203briNe51XscU57Iu07Nf3lZdbNMWq7COZ6k3rfiwLiQiIiKi/sa5YLxhF8owC/MSxHzCLcjCDrzmlarSiIIngfVNpTi2LQdY+aQllcVunQhiZ+9A1jZRLtdtBJ7QQWzaKl3WlI+cUmtaTCNqJj8kypcgTSwF2q6gdqaxbmMqqle+rINrGYjnoWx+kd6vFEVzZLl9W6xCP56stwRJG4391ot+K1HlRERERNTfOBaMGykqt0DG4kA85s0HCtZaL+ScgIKnsoz1CVl4OLsRte5A1WZdw2HUyCB2th5pXrgd1bV65HirOcpc6BO8TlCj824Btit4YIYxO2cmctCEenVM8aZiXyoezrXUIQVqi1XIxxP1JudgiQr4xennZot1RERERNQfORSM78aalY2oXpmnA9Fs3CaWUfqG31QOOfpc/76e7cJ3XSpeUCPNelolAlqZ1rEQurwIBcl6U1/Bbhc0P22xivjxiIiIiKg/cSYY3/oGSpJz8KY1UFXB6HZUmPnWaPRc1KlHnzP0aLDtuoSxSML2rukgDYdQnTwek9S83F6VdhXsdlYyxUa0u8sx7dpiFdbxRL37SrBG91NDcSnTVIiIiIj6KUeC8arK7ZjqTlExyVSVCSipNFNVJiCp9klj5FzlSBs53Qa7dTNQpHLIPSPu6qLIOXegQISst8nlBw8hyW4EOtjtvMRjcXk+kizHNC7gtGmLVVjHE/VuTEXJQqPO+zCLaSpERERE/VSMS9DzUUTeTaQUk7cVYrF3xC4EWkdERERE1H84dzcVIiIiIqILHINxIiIiIiKHRGmaChERERHRwMeRcSIiIiIihzAYJyIiIiJyiEPBuLwjir7dn5ryLV8DH01kO3Xb5Bf0RKKdkaqHiIiIiPo9B0fGJ6Bgm/GFP28uBwoeLENUx6cJWahqCud2ipaAXgq7HiIiIiIaaKIiTSUhNxs5+3bgNY4WExEREdEFJDpzxlUqh5nCsgZVqtAYYc5blq/LmrEu05PqYnzrpeC1r6XcHKEuXuNel2b5qvqqZZ59unxTpuIZ4W4olm3oun3XOuQ+hShBIwpmW8ssI+VhtpeIiIiI+r+oCMYbiktRkjwL81TqhghCZ+9Alk5hObYReMIdhDaiZvJDonwJ0ra+jIIb8o1txFQ0R66X+8qvx9f7bstBzUJL4CuD4tqZut5UVK98WQf6QNoqvU9TPnJKSwPmdCfkFnq2RSpeWDVDlXetYwaK1DY6JUdv5xF+e4mIiIio/3MwGNejxeOycdvKcXihPAsqFm84jBrLupELt6O69rDaQ+aZZ82NN2YTxmNqaaH3aLHaNxUZKjAXErLwcHYjat3BrQiKH9AB8ZyZIkhuQr25bqs5Ai1HsoNTtawQ2CjeGOjlkOvoSXuJiIiIqN+Ligs41Ui3LjWk4gVVrqcuI8qCuhCyFOvxpAqAPekdYZCpIguhj1mEgmRdHogIvH+MfD0iL4RTBxERERFd0KIvZzxhLJKw3ZKaEphMGXlz+QTUHBTb630rLPnjT5RaRp7tNBxCdfJ4TFLzu1C2T5UGsBt5MvC2vkkIuQ4h3PYSERER0YAQhRdwzkDRthxgZZ5O+RCTvwsq3SkhRprLw7kyfcXYt2ah3k/lnvuOuvsx5w4UoAS3yX0ePISkbka1ZXpKiQiif6yPPzKzDA22dcxARrb1Ak6rMNtLRERERANCjEvQ80RERERE1IeicGSciIiIiOjCwGCciIiIiMghDMaJiIiIiBzCYJyIiIiIyCEMxomIiIiIHMJgnIiIiIjIIQzGiYiIiIgcwmCciIiIiMghDMaJiIiIiBzCYJyIiIiIyCEOB+PNWJeZjZHj9JRZhgZVvht54/KxzlgIQ0/3D5bdcWS55bzElLdVrwpHQxnS+uR8iIiIiKgvOReMqwAzD7UPleJYk56eAl7rSdAaVSagYJs+r42pKFm4BlV6TcgSslDVVIjFCXqZiIiIiAYEh4LxZqx7sARJG0tRNEcXSSLoXGxdHijmzEQOmlDPkW0iIiIisnAmGG/YhbJ9qcgINvBWo+h2KR/eqS5d00F0ysiy3XrZo2qZZz/Pep16UrzGvS6tuFmvEyxtSSs+rAu7sfUNlCTPwjxzZNvrfCwj5l51l1lSYHzSYWz7o5u2ExEREVFUcS5NJXk8JunZwESAOdsYRVcpH9tyULPQDExlIJ6HsvlF7lQXr5F2tb4QkPuumqHLPNJW6Tqb8pFTWmrJyW5EQe1MY93GVFSvfFkHzN5tWY8dKFHl/og6ZuuAuVLUVZ4FIxaXdexAljuFBXhCBczB1h2oPyS7thMRERFRtHEuGN93CPV6NqCGw6iBZRQ9IQsPZzeiVgafeoT94dx4Y52PsgeNQN07QLfYao4gF/oEvhNQ8IAO3q0pJrItyTlYoutLyM0W6+zonHERLE8tfcMy+i3PxxKoL9yO6trDwdcdqD8Um7YTERERUdRxJhhPuAVZydtR0asXazaKaYIR6PojUz0WAi/IEeSmIhQk6/JIE8Hy+uVNevTblKqPqyc/o/ZERERENPA5NDIej8UPyTuM+OR4iwB5nW+AnjAWSbAE7mKbJ0r1yLAO6r0DXdMEZD1ViBdQ6D9vuuEQqs1UGTXCrkoDk23ZV4I1ui0NxaUB0lQ85Ch30sonjVQSfT5d2hxs3YH6g4iIiIj6FefSVOYs0fnOOl1DTg8C87oElTNQZN1O5VsvQZpaJ4L68nwR6Oa56/C9gDNtVRGyNov17nuYa3PuQIEId29Txz2EpKBGxkVb1G0KjWPdh1kB0lSsZmDJcqDgQdkG43xgabNx8WiwdQfqDyIiIiLqT2Jcgp6naCLTaGYfwsNNDLSJiIiIBirnRsYpoKq1JZ40GiIiIiIakDgyHjWM2zQWuHPX5UWeHBUnIiIiGsgYjBMREREROYRpKkREREREDmEwTkRERETkEAbjREREREQOYTBOREREROQQBuNERERERA5hME5ERERE5BAG40REREREDmEwTkRERETkEAbjREREREQOYTBOREREROQQh4Lx3cgbl42Rlilvq17Vl7auMY6fWYYGXeSraplYv2y3XiIiIiIiipwYl6Dn+5AMxksxeVshFifooj4n21AIbCxF0Rxd5KuhDGkPHkISmjD5KSfbSkREREQD0QWepjIBkwME2A1bdgDz78CS+UDZlmZdSkREREQUGVEXjKu0EDN9xZ0e0ox1mZ5yd0qLHLk2tx23BlW62IvXNua+xqh4CRpRMDsbacX+Au1mvLYZyJobj4S5s4DNu3xSWWzaFFJb/W1rVy8RERERDTQOpqnIYNiUihealiBNLxksqSwNazCyciaOrZqh10k+qS5b1yDt4B2oyo03Vis+qSgyIJ69A1lqH5/9fakUFWB9eRYSVID8JOBOVZHLeSibX+RzPLtym7ZOfLnreck89i7nSkREREQDkYMj4xNQsK0Ux5rkZAnEzYsqrcF6wnhMLS30HsFuOIwaPbKttl+4HdW1h/VKTW2TigwzJzwhCw9nN6LW7mpNCyNF5RYRiEvxmDcfKFirR+obdqFsXyoe9gq4Bdtym7b6Oy9/ZUREREQ0IEVXmoocjV4IvKAC9CIUJOtyEURXibL1eNIndUOOqJsBvZgiNpq8G2tWNqJ6ZZ5+Y5CN28QySt/wnwoTFD9t9XdetudKRERERANNlAXjh1CdPB6T1LwcZValbgm5hXhz+QTUHGwWC2ORhO14ItAIst6mwgxoRbD/RKllpNzO1jdQkpyDN63Bs3pzoOtKuAVZYr7LsW3LA7fV67w0f2VERERENLBESc44MHW5zLOGyrkukEF4cipyzFsKypzxhduNDa355SoHvATVqlzIzu86Ou61jUyNMfO+7XPG5UWkT0z2zfsWVRXn47babH0M73PIcd8i0abcX1vT3+h6XjJNx9+5EhEREdGA41AwTkREREREF/h9xomIiIiInMNgnIiIiIjIIQzGiYiIiIgcwmCciIiIiMghDMaJiIiIiBzCYJyIiIiIyCEMxomIiIiIHMJgnIiIiIjIIQzGiYiIiIgcwmCciIiIiMghDMaJiIiIiBzCYJyIiIiIyCEMxomIiIiIHMJgnIiIiIjIIQzGiYiIiIgcwmCciIiIiMghDMaJiIiIiBzCYJyIiIiIyCEMxomIiIiIHMJgnIiIiIjIIQzGiYiIiIgcwmCciIiIiMghDMaJiIiIiBzCYJyIiIiIyCEMxomIiIiIHMJgnIiIiIjIIQzGiYiIiIgcwmCciIiIiMghDMaJiIiIiBzCYJyIiIiIyCEMxomIiIiIHMJgnIiIiIjIEcD/D/4nK6wCbP+PAAAAAElFTkSuQmCC;" vertex="1" parent="1">
          <mxGeometry x="-830" y="20" width="739" height="323" as="geometry" />
        </mxCell>
      </root>
    </mxGraphModel>
  </diagram>
  <diagram id="0cndPPzsGWGcUdee5qcN" name="PÃ¡gina-2">
    <mxGraphModel dx="1434" dy="746" grid="1" gridSize="10" guides="1" tooltips="1" connect="1" arrows="1" fold="1" page="1" pageScale="1" pageWidth="827" pageHeight="1169" math="0" shadow="0">
      <root>
        <mxCell id="0" />
        <mxCell id="1" parent="0" />
      </root>
    </mxGraphModel>
  </diagram>
</mxfile>
